<svg width="809" height="357" viewBox="0 0 809 357" fill="none" xmlns="http://www.w3.org/2000/svg">
<g filter="url(#filter0_d)">
<path d="M215.76 193.196H177.912V242H125.456V193.196H0.292V157.008L109.852 9.59998H166.292L64.7 149.372H127.116V105.88H177.912V149.372H215.76V193.196Z" fill="#E63946"/>
</g>
<g filter="url(#filter1_d)">
<path d="M791.76 193.196H753.912V242H701.456V193.196H576.292V157.008L685.852 9.59998H742.292L640.7 149.372H703.116V105.88H753.912V149.372H791.76V193.196Z" fill="#E63946"/>
</g>
<g filter="url(#filter2_d)">
<path d="M317.467 221.011C317.467 221.011 330.611 164.824 327.756 143.606C329.459 110.346 317.467 103.193 324.039 77.3751C330.611 51.5571 322.336 56.4462 330.898 51.5812C339.461 46.7163 358.985 80.9636 358.985 80.9636C358.985 80.9636 365.245 88.261 368.507 82.818C368.507 82.818 371.769 84.239 371.937 86.5992C372.105 88.9353 380.02 85.7563 380.788 84.1667C381.555 82.5772 384.961 77.0379 380.284 53.243C380.284 53.243 380.356 43.3686 386.28 41.3456C390.526 40.5508 385.273 41.177 393.788 46.6199C402.303 52.0629 416.838 67.2839 420.915 80.8432C420.915 80.8432 431.637 87.7312 432.932 90.9102C432.932 90.9102 436.913 91.6087 438.88 92.6924C440.871 93.8003 443.749 87.0086 453.08 85.1301C462.41 83.2515 469.941 76.6526 479.775 81.6379C487.115 91.5123 481.67 92.5961 481.67 92.5961C481.67 92.5961 482.15 94.4506 483.613 94.2338C484.74 95.4621 485.963 100.183 484.884 101.941C483.805 103.699 491.984 110.226 486.923 124.58C481.838 138.934 470.493 154.347 470.493 154.347C470.493 154.347 464.616 166.654 466.967 176.432C469.318 186.21 480.523 215.92 476.733 221.363C472.943 226.781 439.048 261.039 411.009 259.329C382.946 257.619 321.664 251.743 317.467 221.011Z" fill="white" stroke="#E63946" stroke-miterlimit="10"/>
<path d="M388.559 120.461C388.559 120.461 387.039 108.403 398 106.5C404.5 105.372 405.9 107.071 410.626 107.191C415.95 105.939 410.41 113.718 405.229 114.754C402.471 115.982 401.511 120.847 391.054 118.631C388.991 118.848 388.559 120.461 388.559 120.461Z" fill="#E63946"/>
<path d="M460.44 82.8423C460.44 82.8423 447.104 99.4121 464.709 98.4728L468.283 97.5576C468.283 97.5576 469.914 104.397 478.98 100.737C478.98 100.737 482.938 103.049 484.881 101.941C486.823 100.833 483.609 94.234 483.609 94.234L481.667 92.5963C481.667 92.5963 487.783 92.0665 479.772 81.6381C472.24 77.2308 460.44 82.8423 460.44 82.8423Z" fill="#E63946"/>
<path d="M397.5 109.5C397.5 109.5 394.5 110.5 393.185 115.091C396.064 119.787 403.019 114.802 403.019 114.802C403.019 114.802 404.794 112.779 403.019 110.394C400.5 109.5 399.5 109 397.5 109.5Z" fill="white"/>
<path opacity="0.44" d="M317.467 221.012C317.467 221.012 318.594 239.412 345.769 247.311C372.945 255.211 329.387 201.985 336.511 174.144C336.511 174.144 342.627 195.218 348.336 192.159C354.044 189.1 342.915 145.34 349.463 145.725C356.011 146.111 353.828 155.094 365.941 156.298C378.053 157.502 386.424 140.884 381.747 117.114C377.07 93.3428 383.762 85.2024 398.273 86.9847C412.784 88.7669 419.62 98.3523 426.576 97.0517C433.531 95.7512 395.587 77.3029 422.762 82.0715C422.762 82.0715 419.404 65.9594 393.788 46.62C393.788 46.62 388.679 44.8378 388.463 41.0566C388.463 41.0566 380.068 43.9467 380.284 53.2431C380.5 62.5395 384.961 76.6768 380.788 84.1668C374.504 88.1166 371.913 86.5993 371.913 86.5993C371.913 86.5993 371.026 82.9626 368.483 82.8181C365.941 82.6736 367.164 87.7553 358.961 80.9637C351.838 72.1249 344.018 54.375 333.897 51.1719C333.897 51.1719 327.253 51.6054 326.797 54.2305C326.341 56.8557 328.932 64.0809 323.727 80.1689C319.361 93.68 328.116 134.31 328.116 134.31C328.116 134.31 322.144 216.845 317.467 221.012Z" fill="#E63946"/>
<path d="M399.648 109.01C399.648 109.01 395.642 108.938 396.026 112.286C396.41 115.633 404.157 113.394 402.91 111.13C401.638 108.842 400.103 108.986 399.648 109.01Z" fill="#E63946"/>
<path d="M429.5 172.5C429.5 172.5 426 165 435.809 151.578C463.5 122.5 480.569 129 479 98C479 98 481.357 116.584 488.528 117.09C488.528 117.09 489.296 125.182 481.069 118.294C481.069 118.294 473 129 454.5 140C428.5 158.5 438.5 161.5 429.5 172.5Z" fill="#E63946"/>
<path opacity="0.16" d="M479.488 139.608C479.488 139.608 426.984 177.468 426.984 187.776C421.828 207.886 432.237 249.912 429.815 254.777C427.392 259.642 470.589 234.362 478.168 218.78C478.168 218.78 476.85 212.943 466.968 176.408C466.968 176.408 466.224 163.09 470.494 154.323C474.763 145.581 479.008 143.076 479.488 139.608Z" fill="#E63946"/>
<path d="M317.514 221.012C317.514 221.012 327.108 167.256 327.803 143.606C329.171 111.43 317.514 103.193 324.086 77.3754C330.658 51.5574 322.383 56.4464 330.945 51.5815C339.508 46.7166 359.032 80.9639 359.032 80.9639C359.032 80.9639 365.292 88.2613 368.554 82.8183C368.554 82.8183 371.816 84.2393 371.984 86.5995C372.152 88.9356 380.067 85.7566 380.835 84.167C381.578 82.5775 385.008 77.0382 380.331 53.2433C380.331 53.2433 380.619 44.0432 386.543 42.0202C390.789 41.2254 385.344 41.1772 393.859 46.6202C402.374 52.0632 416.909 67.2842 420.986 80.8434C420.986 80.8434 431.708 87.7314 433.003 90.9105C433.003 90.9105 436.984 91.6089 438.951 92.6927C440.942 93.8006 443.82 87.0089 453.151 85.1304C462.481 83.2518 470.012 76.6528 479.846 81.6382C487.186 91.5126 481.741 92.5964 481.741 92.5964C481.741 92.5964 482.221 94.4509 483.684 94.2341C484.811 95.4624 486.034 100.183 484.955 101.941C483.876 103.699 492.055 110.226 486.994 124.58C481.933 138.934 470.564 154.348 470.564 154.348C470.564 154.348 464.64 166.654 466.99 176.432C469.341 186.211 480.236 215.92 476.446 221.363C472.656 226.782 439.119 261.039 411.08 259.329C382.994 257.619 321.687 251.743 317.514 221.012Z" stroke="#E63946" stroke-width="4" stroke-miterlimit="10"/>
<path d="M395.346 260.316C463.911 260.316 519.494 204.505 519.494 135.658C519.494 66.8114 463.911 11 395.346 11C326.781 11 271.198 66.8114 271.198 135.658C271.198 204.505 326.781 260.316 395.346 260.316Z" stroke="#E63946" stroke-width="21" stroke-miterlimit="10"/>
<path d="M309.041 231.981L320.242 238.412L297.671 265.675L288.077 258.835L309.041 231.981Z" fill="#E63946"/>
<path d="M228.413 337.425C217.956 330.007 215.893 316.135 223.832 306.574L261.897 260.742C269.836 251.181 284.899 249.422 295.356 256.84C305.814 264.258 307.876 278.13 299.937 287.692L261.873 333.523C253.934 343.061 238.871 344.819 228.413 337.425Z" fill="#E63946"/>
<path d="M341.33 114.85C341.33 114.85 343.321 105.385 334.71 99.3881C326.099 93.3912 332.887 73.4497 334.71 64.8036C336.533 56.1575 355.241 91.5608 355.073 106.372C355.073 106.372 344.472 105.385 341.33 114.85Z" fill="#E63946"/>
<path d="M398.25 56.0127C398.25 56.0127 402.448 72.6306 401.776 75.3039C401.081 77.9531 408.036 71.306 416.983 78.4589C417.031 72.0044 400.889 56.3499 398.25 56.0127Z" fill="#E63946"/>
</g>
<path d="M411.885 122C411.885 122 423.243 151.124 413.504 155.684C403.765 160.244 409.414 138.332 411.885 122Z" fill="#A8DADC"/>
<defs>
<filter id="filter0_d" x="0.291992" y="9.6001" width="232.468" height="249.4" filterUnits="userSpaceOnUse" color-interpolation-filters="sRGB">
<feFlood flood-opacity="0" result="BackgroundImageFix"/>
<feColorMatrix in="SourceAlpha" type="matrix" values="0 0 0 0 0 0 0 0 0 0 0 0 0 0 0 0 0 0 127 0"/>
<feOffset dx="13" dy="13"/>
<feGaussianBlur stdDeviation="2"/>
<feColorMatrix type="matrix" values="0 0 0 0 0 0 0 0 0 0 0 0 0 0 0 0 0 0 0.25 0"/>
<feBlend mode="normal" in2="BackgroundImageFix" result="effect1_dropShadow"/>
<feBlend mode="normal" in="SourceGraphic" in2="effect1_dropShadow" result="shape"/>
</filter>
<filter id="filter1_d" x="576.292" y="9.6001" width="232.468" height="249.4" filterUnits="userSpaceOnUse" color-interpolation-filters="sRGB">
<feFlood flood-opacity="0" result="BackgroundImageFix"/>
<feColorMatrix in="SourceAlpha" type="matrix" values="0 0 0 0 0 0 0 0 0 0 0 0 0 0 0 0 0 0 127 0"/>
<feOffset dx="13" dy="13"/>
<feGaussianBlur stdDeviation="2"/>
<feColorMatrix type="matrix" values="0 0 0 0 0 0 0 0 0 0 0 0 0 0 0 0 0 0 0.25 0"/>
<feBlend mode="normal" in2="BackgroundImageFix" result="effect1_dropShadow"/>
<feBlend mode="normal" in="SourceGraphic" in2="effect1_dropShadow" result="shape"/>
</filter>
<filter id="filter2_d" x="219" y="0.5" width="330.994" height="356.5" filterUnits="userSpaceOnUse" color-interpolation-filters="sRGB">
<feFlood flood-opacity="0" result="BackgroundImageFix"/>
<feColorMatrix in="SourceAlpha" type="matrix" values="0 0 0 0 0 0 0 0 0 0 0 0 0 0 0 0 0 0 127 0"/>
<feOffset dx="16" dy="11"/>
<feGaussianBlur stdDeviation="2"/>
<feColorMatrix type="matrix" values="0 0 0 0 0 0 0 0 0 0 0 0 0 0 0 0 0 0 0.25 0"/>
<feBlend mode="normal" in2="BackgroundImageFix" result="effect1_dropShadow"/>
<feBlend mode="normal" in="SourceGraphic" in2="effect1_dropShadow" result="shape"/>
</filter>
</defs>
</svg>
