<svg width="16" height="16" viewBox="0 0 16 16" fill="none" xmlns="http://www.w3.org/2000/svg">
<g id="circular" clip-path="url(#clip0_3470_145)">
<path id="Vector" d="M1.30187 10.7745C0.937527 9.89485 0.75 8.95208 0.75 8C0.75 6.07718 1.51384 4.23311 2.87348 2.87348C4.23311 1.51384 6.07718 0.75 8 0.75C9.92282 0.75 11.7669 1.51384 13.1265 2.87348C14.4862 4.23311 15.25 6.07718 15.25 8C15.25 8.95208 15.0625 9.89485 14.6981 10.7745C14.3338 11.6541 13.7997 12.4533 13.1265 13.1265C12.4533 13.7997 11.6541 14.3338 10.7745 14.6981C9.89485 15.0625 8.95208 15.25 8 15.25C7.04792 15.25 6.10516 15.0625 5.22554 14.6981C4.34594 14.3338 3.5467 13.7997 2.87348 13.1265C2.20025 12.4533 1.66622 11.6541 1.30187 10.7745Z" stroke="#E63946" stroke-width="1.5" stroke-linecap="round" stroke-linejoin="round"/>
<path id="Vector_2" d="M5.66675 8H10.3334" stroke="#E63946" stroke-width="1.5" stroke-linecap="round" stroke-linejoin="round"/>
<path id="Vector_3" d="M8 5.66663V10.3333" stroke="#E63946" stroke-width="1.5" stroke-linecap="round" stroke-linejoin="round"/>
</g>
<defs>
<clipPath id="clip0_3470_145">
<rect width="16" height="16" fill="white"/>
</clipPath>
</defs>
</svg>
