<svg width="214" height="78" viewBox="0 0 214 78" fill="none" xmlns="http://www.w3.org/2000/svg">
<path d="M166.449 65.7218C166.449 65.7218 167.966 67.695 198.403 65.9112C246.602 63.0844 160 49.6577 160 49.6577C167.677 63.0844 166.449 65.7218 166.449 65.7218Z" fill="white" stroke="#E63946" stroke-width="0.5" stroke-miterlimit="10"/>
<path d="M28.0248 21.6268C29.5626 17.1625 44.5435 8.35703 49.203 5.47692C53.8594 2.59401 68.3144 -1.6044 94.7641 3.1538C110.757 6.23264 117.216 7.63211 129.21 13.23C148.894 22.4665 152.104 29.1839 152.344 35.0617C152.344 35.0617 159.292 40.6596 161.319 48.6366C163.346 56.6136 175.282 71.8286 161.319 69.819C148.912 68.0332 150.684 65.8445 146.704 66.5582C146.206 66.6478 145.615 66.7821 144.892 66.9696C138.434 68.649 143.973 69.9757 130.133 68.7526C121.211 66.9696 122.748 66.9696 109.831 68.0892C96.9139 69.2088 26.487 26.0911 28.0248 21.6268Z" fill="white" stroke="#E63946" stroke-width="0.5" stroke-miterlimit="10"/>
<path d="M28.0248 21.6264C29.5626 17.162 44.5435 8.35649 49.203 5.47636C53.8624 2.59622 68.3144 -1.60502 94.7641 3.15322C111.916 5.98857 117.452 8.22774 129.21 13.2295C148.894 22.4661 152.104 29.1836 152.344 35.0614C152.344 35.0614 159.292 40.6593 161.319 48.6364C163.346 56.6134 175.282 71.8286 161.319 69.819C147.356 67.8093 151.354 65.2902 144.895 66.9696C138.437 68.649 143.976 69.9757 130.136 68.7526C121.214 66.9696 122.752 66.9696 109.834 68.0892C96.917 69.2088 26.487 26.0879 28.0248 21.6264Z" stroke="#E63946" stroke-width="0.5" stroke-miterlimit="10"/>
<path opacity="0.3" d="M167.771 66.1644C167.771 66.1644 169.395 67.3543 198.683 65.6401C245.063 62.9236 161.729 50.0209 161.729 50.0209C168.004 63.1208 167.771 66.1644 167.771 66.1644Z" fill="#E63946" stroke="#E63946" stroke-width="0.5" stroke-miterlimit="10"/>
<path opacity="0.4" d="M28.0248 21.6264C29.5626 17.162 44.5435 8.35649 49.203 5.47636C53.8624 2.59622 68.3144 -1.60502 94.7641 3.15322C110.757 6.23208 117.216 7.63156 129.21 13.2295C148.894 22.4661 152.104 29.1836 152.344 35.0614C152.344 35.0614 159.292 40.6593 161.319 48.6364C163.346 56.6134 175.282 71.8286 161.319 69.819C148.912 68.0332 150.684 65.8444 146.704 66.5582C146.206 66.6477 145.615 66.7821 144.892 66.9696C138.434 68.649 143.973 69.9757 130.133 68.7526C121.211 66.9696 122.748 66.9696 109.831 68.0892C96.9139 69.2088 26.487 26.0907 28.0248 21.6264Z" fill="#E63946" stroke="#E63946" stroke-width="0.5" stroke-miterlimit="10"/>
<path opacity="0.6" d="M85.1984 48.3162C85.1984 48.3162 92.5794 31.1814 79.126 11.9224C79.126 11.9224 71.7878 1.44322 60.1689 2.00966C57.8574 2.12295 79.0005 1.52588e-05 96.2485 3.42576C110.515 7.33987 108.886 5.1619 119.486 9.09017C127.13 11.9224 131.717 14.1881 142.418 20.7022C142.418 20.7022 147.31 24.1009 149.756 27.7827C152.487 31.8951 131.411 20.7022 128.353 27.7827C125.296 34.8632 129.992 37.1545 129.937 40.825C129.882 44.4956 131.717 63.1853 127.742 63.7517L122.238 67.7168L114.594 68C114.594 68 117.652 65.451 118.569 62.0524C119.56 58.3875 123.635 61.1744 125.993 52.9752C128.353 44.7759 122.626 25.0581 119.373 25.7124C116.12 26.3666 118.85 61.0215 113.97 61.3953C113.97 61.3953 108.99 48.455 108.234 47.0021C106.339 43.3627 106.033 38.0523 106.033 29.2017C106.033 22.4044 100.508 10.376 97.3951 7.39651C95.0255 5.12792 85.5469 3.99504 84.6297 5.97758C83.8958 7.56078 97.1597 19.8412 96.7041 29.9012C96.2485 39.964 101.703 44.977 103.715 46.0108C105.727 47.0445 85.1984 48.3162 85.1984 48.3162Z" fill="#E63946" stroke="#E63946" stroke-width="0.5" stroke-miterlimit="10"/>
<path d="M59.5155 58.5327C59.5155 58.5327 59.5155 64.1577 59.5155 64.2494C59.5155 64.3412 59.5155 68.9268 65.3326 67.0925C65.3326 67.0925 69.0066 71.3724 72.6805 67.3982C72.6805 67.3982 78.4976 71.3724 80.0284 65.564C80.0284 65.564 90.1318 69.5382 100.235 69.8439C105.073 69.9906 104.476 67.3982 110.47 69.8439C110.47 69.8439 116.998 71.6781 113.67 58.5327C110.342 45.3874 100.342 37.3473 90.9523 41.5202C81.5623 45.6931 83.0931 51.8072 78.5007 52.1129C73.9082 52.4186 88.9102 52.1129 94.4212 49.0559C99.9321 45.9988 89.8287 54.2529 69.622 51.8072C49.4152 49.3616 59.5155 58.5327 59.5155 58.5327Z" fill="white" stroke="#E63946" stroke-width="0.5" stroke-miterlimit="10"/>
<path d="M4.46435 63.5188C4.46435 63.5188 -0.924119 65.1084 1.7395 57.9977C4.40312 50.887 16.6496 50.8901 17.5681 49.6672C18.4866 48.4444 23.7863 47.0687 23.7863 47.0687L26.753 60.3669C26.753 60.3669 23.6914 62.2012 16.6496 61.5898C16.6496 61.5898 13.588 62.8126 12.0572 61.5898C10.2233 62.2012 8.5057 65.7535 4.46435 63.5188Z" fill="white" stroke="#E63946" stroke-width="0.5" stroke-miterlimit="10"/>
<path d="M44.0547 71.2196C44.0547 71.2196 41.2992 71.5253 40.6869 70.3025C40.0746 69.0797 36.0944 73.3595 34.8698 65.1055C34.8698 65.1055 34.3922 63.1551 29.4262 63.5189C24.7725 63.8582 16.549 61.9995 18.4993 49.6765C18.6278 48.8541 18.8054 47.9859 19.0289 47.0688C19.0289 47.0688 16.5 43.706 20.174 33.312C20.174 33.312 20.4801 26.8922 19.2555 23.5294C18.0308 20.1667 20.4801 7.327 23.5418 7.327C26.6034 7.327 31.1162 13.0834 31.1162 13.0834C31.1162 13.0834 36.7068 18.3324 37.0129 19.2495C37.0129 19.2495 41.2992 16.1925 45.5855 19.2495C49.8718 22.3066 55.3245 15.6361 55.3245 15.6361C55.3245 15.6361 58.4443 3.96423 63.9553 4.26994C69.4662 4.57565 73.1402 22.6123 72.5278 30.5607C72.5278 30.5607 79.5696 35.452 78.9573 42.4832C78.9573 42.4832 83.8559 51.3487 76.508 56.8514C69.16 62.3541 63.3429 61.7427 61.506 62.3541C59.669 62.9655 55.3827 67.2454 52.3854 69.688C52.3854 69.688 49.8718 70.3025 48.341 69.6911C46.8101 69.0797 47.4225 70.6082 44.0547 71.2196Z" fill="white" stroke="#E63946" stroke-width="0.5" stroke-miterlimit="10"/>
<path d="M42.8303 58.0742C42.8303 58.0742 36.4008 57.7685 37.9317 63.5769C39.1563 67.8568 40.9933 66.3283 42.2179 68.7739C42.2179 68.7739 43.7488 70.3024 46.1981 66.0226C48.3412 63.8826 49.872 62.0484 48.6474 60.2142C47.4227 58.3799 45.5857 57.7685 42.8303 58.0742Z" fill="#E63946"/>
<path d="M52.6264 45.846C52.6264 45.846 51.4018 42.1775 54.4634 40.9547C57.525 39.7319 59.0559 41.8718 59.0559 41.8718C59.0559 41.8718 59.362 43.706 56.3004 45.2346C54.4634 45.846 54.1572 45.2346 52.6264 45.846Z" fill="#E63946"/>
<path d="M38.2373 47.0687C38.2373 47.0687 38.8496 42.4831 35.788 41.8717C32.7263 41.2603 32.4202 44.0117 32.4202 44.0117C32.4202 44.0117 33.6448 46.763 34.8695 46.763C36.0941 46.763 38.2373 47.0687 38.2373 47.0687Z" fill="#E63946"/>
<path d="M56.9134 41.8717C56.9134 41.8717 57.8319 43.0945 55.0764 44.0117C55.0764 44.0117 52.9486 43.7059 54.3172 41.8717C54.3172 41.8717 56.3011 41.566 56.9134 41.8717Z" fill="white"/>
<path d="M36.706 45.5403C36.706 45.5403 37.3183 43.0946 35.4813 43.0946C33.6444 43.0946 33.9505 43.706 33.9505 43.706C33.9505 43.706 33.9505 45.5403 36.706 45.5403Z" fill="white"/>
<path d="M54.7695 41.8718C54.7695 41.8718 54.1572 43.0946 55.3819 43.0946C56.6065 43.0946 55.7248 41.6303 55.7248 41.6303C55.7248 41.6303 55.0757 41.2604 54.7695 41.8718Z" fill="#E63946"/>
<path d="M35.6191 43.6387C35.6191 43.6387 35.0588 44.6231 36.1794 44.6231C37.2999 44.6231 36.4916 43.4431 36.4916 43.4431C36.4916 43.4431 35.9007 43.1435 35.6191 43.6387Z" fill="#E63946"/>
<path d="M60.74 25.5164C60.74 25.5164 64.1078 21.4475 60.74 20.7321C60.74 20.7321 59.8215 18.4852 63.8017 14.8167C67.7818 11.1482 65.0263 28.2678 64.414 28.5735C63.8017 28.8792 60.74 25.5164 60.74 25.5164Z" fill="#E63946"/>
<path d="M25.0724 31.7834L28.2626 27.3079C28.2626 27.3079 26.2971 24.4342 26.7563 23.5232C27.2156 22.6122 28.7464 24.1407 28.7464 24.1407C28.7464 24.1407 27.8279 20.778 25.6847 20.1666C23.5416 19.5552 24.1539 32.0891 25.0724 31.7834Z" fill="#E63946"/>
<path opacity="0.5" d="M39.7685 36.9805C39.7685 36.9805 38.1489 46.4574 41.5595 45.5403C44.9702 44.6232 41.2993 39.1205 42.2178 27.5036C43.1363 15.8868 43.1363 44.6232 44.9732 44.6232C46.8102 44.6232 48.341 43.706 47.1164 40.0376C45.8917 36.3691 47.4225 34.2292 49.8719 34.2292C52.3212 34.2292 58.7689 36.6595 59.0659 39.7227C59.0659 39.7227 62.4245 43.4003 59.3629 49.2088C59.3629 49.2088 59.3629 52.2658 61.506 46.7631C63.6492 41.2604 65.0422 41.826 68.0181 42.3059C70.9971 42.7889 80.73 37.8976 74.4843 32.2421C67.9324 28.7264 66.9649 31.594 57.9576 22.9761C57.9576 22.9761 52.3181 21.8358 54.6143 16.4156C54.6143 16.4156 51.7058 20.7781 45.5825 19.2495C42.2147 17.4153 40.9901 17.1096 37.0099 19.2495C33.0298 21.3895 27.9138 28.9435 25.0696 31.7835C20.171 36.6748 17.4155 35.452 18.9463 47.0688C19.3872 50.4163 19.1453 45.846 22.109 45.846C25.0727 45.846 27.5189 42.7889 30.2744 50.1259C33.336 53.4886 28.1067 44.5773 29.0375 42.3059C29.9682 40.0376 33.4738 35.0209 36.7742 35.0821C40.0746 35.1463 39.7685 36.9805 39.7685 36.9805Z" fill="#E63946"/>
<path d="M31.8298 14.3002C31.8298 14.3002 35.1027 19.9741 32.9963 21.4445C30.8898 22.915 25.0728 29.3348 25.0728 31.7804L37.0131 19.2465C37.0131 19.2496 34.9159 16.9965 31.8298 14.3002Z" fill="#E63946"/>
<path d="M54.617 16.4156C54.617 16.4156 52.627 18.6381 51.7085 19.2495C50.79 19.8609 51.4023 21.7654 54.617 22.7987C57.8317 23.832 59.0564 24.4465 59.9749 25.975C59.9749 25.975 63.3427 27.8093 64.8735 29.3378C66.4043 30.8663 64.1785 26.5956 58.0981 22.1598C58.0981 22.1598 54.464 22.0008 54.7701 19.5552C54.464 17.4152 55.3824 15.581 54.617 16.4156Z" fill="#E63946"/>
<path opacity="0.6" d="M42.0692 66.7449C42.0692 66.7449 43.9061 68.8849 40.3853 70.2605C40.3853 70.2605 41.1996 71.7035 43.4714 71.2113C45.7431 70.7191 46.9096 69.695 46.9096 69.695C46.9096 69.695 44.0531 69.4963 42.908 66.7449C41.763 63.9936 42.0692 66.7449 42.0692 66.7449Z" fill="#E63946" stroke="#E63946" stroke-width="0.5" stroke-miterlimit="10"/>
<path d="M42.3055 66.7449C42.3055 66.7449 44.1425 68.8849 40.6216 70.2605C40.6216 70.2605 41.436 71.7035 43.7077 71.2113C45.9794 70.7191 47.1459 69.695 47.1459 69.695C47.1459 69.695 44.2894 69.4963 43.1444 66.7449C41.9993 63.9936 42.3055 66.7449 42.3055 66.7449Z" stroke="#E63946" stroke-width="0.5" stroke-miterlimit="10"/>
<path opacity="0.6" d="M129.933 69.0399C129.933 69.0399 130.083 63.5769 132.533 63.5769C134.982 63.5769 136.513 63.8826 137.125 65.1054C138.962 68.1625 141.512 68.401 141.512 68.401L143.359 67.5419C143.359 67.5419 140.187 66.9366 137.802 63.5739C136.439 61.651 132.058 61.6968 131.002 62.9624C129.471 64.7967 128.531 66.1296 128.693 68.8259L129.933 69.0399Z" fill="#E63946"/>
<path opacity="0.6" d="M143.361 60.847C143.361 60.847 147.62 62.8279 146.429 66.6401C146.429 66.6401 149.8 65.6396 151.851 67.8162C154.437 69.1417 145.241 60.6697 147.384 56.3898C147.384 56.3928 143.012 58.2729 143.361 60.847Z" fill="#E63946"/>
<path opacity="0.6" d="M130.052 67.7039C130.052 67.7039 130.475 69.0215 132.269 68.8992C134.063 68.7739 133.757 66.3282 133.757 66.3282C133.757 66.3282 133.687 68.9206 135.101 69.3058C136.512 69.691 136.819 66.634 136.819 66.634C136.819 66.634 136.491 69.6543 137.878 69.5198C139.265 69.3853 132.639 69.5229 132.639 69.5229L129.93 69.0399L130.052 67.7039Z" fill="#E63946"/>
<path d="M167.941 66.071C167.941 66.071 168.196 67.6949 198.368 65.9111C246.148 63.0843 161.616 50.005 161.616 50.005C168.375 63.6549 167.941 66.071 167.941 66.071Z" stroke="#E63946" stroke-width="0.5" stroke-miterlimit="10"/>
<path d="M52.7768 47C52.7768 47 55.6762 54.4195 53.1902 55.5812C50.7041 56.7429 52.1461 51.1607 52.7768 47Z" fill="#85BBF7"/>
<path d="M52.9917 58C52.9917 58 55.8911 65.4195 53.405 66.5812C50.919 67.7429 52.361 62.1607 52.9917 58Z" fill="#85BBF7"/>
<path d="M52.9917 69C52.9917 69 55.8911 76.4195 53.405 77.5812C50.919 78.7429 52.361 73.1607 52.9917 69Z" fill="#85BBF7"/>
</svg>
