<svg width="100%" height="100%" viewBox="0 0 547 564" fill="none" xmlns="http://www.w3.org/2000/svg">
<g filter="url(#filter0_d_2190_249)">
<path d="M169.006 371.459C169.006 371.459 191.566 275.02 186.667 238.602C189.59 181.515 169.006 169.238 180.286 124.925C191.566 80.6114 177.363 89.0029 192.06 80.6528C206.757 72.3027 240.267 131.084 240.267 131.084C240.267 131.084 251.012 143.609 256.611 134.267C256.611 134.267 262.21 136.706 262.498 140.757C262.786 144.767 276.372 139.31 277.689 136.582C279.006 133.854 284.852 124.346 276.825 83.505C276.825 83.505 276.948 66.5568 287.117 63.0845C294.403 61.7204 285.387 62.7951 300.002 72.1373C314.617 81.4795 339.564 107.605 346.563 130.877C346.563 130.877 364.965 142.7 367.188 148.156C367.188 148.156 374.022 149.355 377.398 151.215C380.815 153.117 385.755 141.46 401.769 138.235C417.783 135.011 430.71 123.685 447.589 132.241C460.186 149.19 450.841 151.05 450.841 151.05C450.841 151.05 451.665 154.233 454.176 153.861C456.111 155.969 458.21 164.071 456.358 167.089C454.505 170.106 468.543 181.309 459.857 205.946C451.129 230.582 431.657 257.038 431.657 257.038C431.657 257.038 421.571 278.161 425.605 294.944C429.64 311.727 448.872 362.72 442.368 372.062C435.863 381.363 377.686 440.162 329.561 437.227C281.394 434.292 176.21 424.205 169.006 371.459Z" fill="white" stroke="#E63946" stroke-miterlimit="10"/>
<path d="M291.027 198.877C291.027 198.877 288.418 178.18 307.232 174.914C318.388 172.978 320.792 175.894 328.902 176.101C338.041 173.951 328.531 187.303 319.639 189.081C314.905 191.189 313.258 199.539 295.309 195.736C291.768 196.108 291.027 198.877 291.027 198.877Z" fill="#E63946"/>
<path d="M414.401 134.309C414.401 134.309 391.512 162.749 421.729 161.136L427.863 159.566C427.863 159.566 430.663 171.305 446.224 165.022C446.224 165.022 453.017 168.991 456.351 167.089C459.686 165.188 454.17 153.861 454.17 153.861L450.835 151.05C450.835 151.05 461.333 150.141 447.583 132.242C434.656 124.677 414.401 134.309 414.401 134.309Z" fill="#E63946"/>
<path d="M306.374 180.063C306.374 180.063 301.225 181.78 298.969 189.659C303.909 197.72 315.848 189.163 315.848 189.163C315.848 189.163 318.894 185.691 315.848 181.598C311.523 180.063 309.807 179.205 306.374 180.063Z" fill="white"/>
<path opacity="0.44" d="M169.006 371.46C169.006 371.46 170.941 403.041 217.584 416.6C264.227 430.158 189.466 338.803 201.693 291.018C201.693 291.018 212.191 327.188 221.989 321.938C231.787 316.688 212.685 241.578 223.924 242.24C235.163 242.901 231.416 258.32 252.206 260.387C272.996 262.454 287.363 233.931 279.336 193.131C271.308 152.332 282.794 138.36 307.7 141.419C332.607 144.477 344.34 160.93 356.279 158.697C368.217 156.465 303.09 124.801 349.733 132.986C349.733 132.986 343.969 105.331 300.002 72.1375C300.002 72.1375 291.233 69.0786 290.863 62.5886C290.863 62.5886 276.454 67.5491 276.825 83.5052C277.195 99.4613 284.852 123.726 277.689 136.582C266.903 143.361 262.457 140.757 262.457 140.757C262.457 140.757 260.934 134.515 256.57 134.267C252.206 134.019 254.306 142.741 240.226 131.084C227.999 115.914 214.579 85.4481 197.206 79.9502C197.206 79.9502 185.802 80.6943 185.02 85.2C184.238 89.7058 188.684 102.107 179.751 129.72C172.258 152.91 187.284 222.646 187.284 222.646C187.284 222.646 177.034 364.308 169.006 371.46Z" fill="#E63946"/>
<path d="M310.06 179.223C310.06 179.223 303.185 179.099 303.843 184.845C304.502 190.591 317.799 186.746 315.659 182.861C313.477 178.934 310.842 179.182 310.06 179.223Z" fill="#E63946"/>
<path d="M361.298 288.195C361.298 288.195 355.29 275.322 372.126 252.285C419.655 202.376 448.951 213.532 446.258 160.325C446.258 160.325 450.304 192.222 462.613 193.09C462.613 193.09 463.93 206.979 449.81 195.157C449.81 195.157 435.96 213.533 404.207 232.413C359.581 264.166 376.745 269.315 361.298 288.195Z" fill="#E63946"/>
<path opacity="0.16" d="M447.097 231.74C447.097 231.74 356.98 296.722 356.98 314.414C348.129 348.931 365.996 421.064 361.838 429.414C357.68 437.764 431.822 394.374 444.831 367.629C444.831 367.629 442.568 357.611 425.607 294.903C425.607 294.903 424.331 272.044 431.659 256.997C438.987 241.992 446.273 237.693 447.097 231.74Z" fill="#E63946"/>
<path d="M169.087 371.46C169.087 371.46 185.554 279.195 186.748 238.602C189.095 183.376 169.087 169.239 180.367 124.925C191.647 80.6119 177.444 89.0033 192.141 80.6532C206.838 72.3031 240.348 131.084 240.348 131.084C240.348 131.084 251.093 143.61 256.692 134.267C256.692 134.267 262.291 136.706 262.579 140.757C262.867 144.767 276.453 139.311 277.77 136.582C279.046 133.854 284.933 124.347 276.906 83.5055C276.906 83.5055 277.4 67.7147 287.568 64.2424C294.855 62.8783 285.51 62.7956 300.124 72.1378C314.739 81.48 339.687 107.605 346.685 130.878C346.685 130.878 365.087 142.7 367.31 148.157C367.31 148.157 374.144 149.355 377.52 151.216C380.937 153.117 385.877 141.46 401.891 138.236C417.906 135.012 430.832 123.685 447.711 132.242C460.308 149.19 450.963 151.05 450.963 151.05C450.963 151.05 451.787 154.233 454.298 153.861C456.233 155.969 458.332 164.071 456.48 167.089C454.627 170.107 468.665 181.309 459.979 205.946C451.293 230.583 431.779 257.039 431.779 257.039C431.779 257.039 421.611 278.162 425.645 294.945C429.68 311.728 448.38 362.72 441.875 372.062C435.371 381.363 377.808 440.162 329.683 437.227C281.475 434.292 176.25 424.206 169.087 371.46Z" stroke="#E63946" stroke-width="4" stroke-miterlimit="10"/>
<path d="M302.677 438.922C420.36 438.922 515.762 343.128 515.762 224.961C515.762 106.794 420.36 11 302.677 11C184.993 11 89.5918 106.794 89.5918 224.961C89.5918 343.128 184.993 438.922 302.677 438.922Z" stroke="#E63946" stroke-width="21" stroke-miterlimit="10"/>
<path d="M154.543 390.287L173.769 401.324L135.03 448.118L118.562 436.378L154.543 390.287Z" fill="#E63946"/>
<path d="M16.1559 571.269C-1.79333 558.537 -5.33376 534.727 8.2928 518.316L73.6262 439.652C87.2528 423.241 113.106 420.223 131.055 432.955C149.005 445.687 152.545 469.497 138.918 485.908L73.5851 564.572C59.9585 580.942 34.105 583.959 16.1559 571.269Z" fill="#E63946"/>
<path d="M209.964 189.246C209.964 189.246 213.381 173 198.602 162.707C183.823 152.414 195.473 118.187 198.602 103.347C201.731 88.5072 233.842 149.273 233.553 174.695C233.553 174.695 215.357 173 209.964 189.246Z" fill="#E63946"/>
<path d="M318.578 210C318.578 210 337.81 260.953 321.32 268.93C304.829 276.908 314.395 238.573 318.578 210Z" fill="#A8DADC"/>
<path d="M307.662 88.2588C307.662 88.2588 314.866 116.781 313.714 121.37C312.52 125.917 324.459 114.508 339.814 126.785C339.897 115.707 312.191 88.8375 307.662 88.2588Z" fill="#E63946"/>
</g>
<defs>
<filter id="filter0_d_2190_249" x="-0.000976562" y="0.5" width="546.263" height="593.621" filterUnits="userSpaceOnUse" color-interpolation-filters="sRGB">
<feFlood flood-opacity="0" result="BackgroundImageFix"/>
<feColorMatrix in="SourceAlpha" type="matrix" values="0 0 0 0 0 0 0 0 0 0 0 0 0 0 0 0 0 0 127 0" result="hardAlpha"/>
<feOffset dx="16" dy="11"/>
<feGaussianBlur stdDeviation="2"/>
<feColorMatrix type="matrix" values="0 0 0 0 0 0 0 0 0 0 0 0 0 0 0 0 0 0 0.25 0"/>
<feBlend mode="normal" in2="BackgroundImageFix" result="effect1_dropShadow_2190_249"/>
<feBlend mode="normal" in="SourceGraphic" in2="effect1_dropShadow_2190_249" result="shape"/>
</filter>
</defs>
</svg>
