<svg width="820" height="335" viewBox="0 0 820 335" fill="none" xmlns="http://www.w3.org/2000/svg">
<g filter="url(#filter0_d_2319_255)">
<path d="M707.804 308.938C707.804 308.938 714.181 319.572 842.129 309.959C1044.75 294.726 680.693 222.372 680.693 222.372C712.967 294.726 707.804 308.938 707.804 308.938Z" fill="white" stroke="#E63946" stroke-width="3" stroke-miterlimit="10"/>
<path d="M121.471 97.5881C127.926 76.9802 190.809 36.333 210.367 23.038C229.913 9.73007 290.588 -9.65037 401.611 12.3141C468.742 26.5265 495.852 32.9866 546.2 58.8272C628.822 101.464 642.3 132.473 643.307 159.605C643.307 159.605 672.47 185.446 680.977 222.269C689.485 259.092 739.587 329.326 680.977 320.05C628.899 311.807 636.335 301.703 619.63 304.998C617.539 305.411 615.06 306.031 612.026 306.897C584.916 314.649 608.166 320.773 550.073 315.127C512.622 306.897 519.077 306.897 464.856 312.065C410.635 317.233 115.016 118.196 121.471 97.5881Z" fill="white" stroke="#E63946" stroke-width="3" stroke-miterlimit="10"/>
<path d="M121.342 97.2134C127.797 76.6055 190.68 35.9583 210.238 22.6633C229.796 9.36832 290.459 -10.025 401.482 11.9395C473.48 25.0277 496.717 35.364 546.071 58.4525C628.693 101.089 642.171 132.098 643.178 159.231C643.178 159.231 672.341 185.071 680.848 221.894C689.356 258.717 739.458 328.952 680.848 319.675C622.238 310.398 639.021 298.77 611.91 306.522C584.8 314.274 608.05 320.399 549.957 314.752C512.506 306.522 518.961 306.522 464.74 311.69C410.519 316.858 114.887 117.808 121.342 97.2134Z" stroke="#E63946" stroke-width="3" stroke-miterlimit="10"/>
<path opacity="0.3" d="M708.449 309.274C708.449 309.274 714.826 319.908 842.774 310.295C1045.39 295.062 681.339 222.708 681.339 222.708C713.613 295.062 708.449 309.274 708.449 309.274Z" fill="#E63946" stroke="#E63946" stroke-width="3" stroke-miterlimit="10"/>
<path opacity="0.4" d="M121.058 97.3814C127.513 76.7735 190.396 36.1263 209.954 22.8313C229.512 9.53629 290.175 -9.85707 401.198 12.1074C468.329 26.3198 495.439 32.7799 545.787 58.6205C628.409 101.257 641.887 132.266 642.894 159.399C642.894 159.399 672.057 185.239 680.564 222.062C689.072 258.885 739.174 329.12 680.564 319.843C628.486 311.6 635.922 301.496 619.217 304.791C617.126 305.204 614.647 305.824 611.613 306.69C584.503 314.442 607.753 320.567 549.66 314.92C512.209 306.69 518.664 306.69 464.443 311.858C410.222 317.026 114.603 117.989 121.058 97.3814Z" fill="#E63946" stroke="#E63946" stroke-width="3" stroke-miterlimit="10"/>
<path opacity="0.6" d="M359.694 219.478C359.694 219.478 390.858 141.31 334.055 53.4524C334.055 53.4524 303.072 5.64728 254.015 8.23134C244.255 8.74815 336.637 -5.98098 406.349 14.6915C466.586 32.5473 459.705 22.6116 504.463 40.5321C536.737 53.4524 556.102 63.7886 601.286 93.5053C601.286 93.5053 621.941 109.01 632.269 125.806C643.797 144.566 554.811 93.5053 541.901 125.806C528.991 158.107 548.821 168.559 548.588 185.304C548.356 202.049 556.102 287.31 539.319 289.894L516.082 307.982L483.807 309.274C483.807 309.274 496.717 297.646 500.59 282.142C504.773 265.423 521.981 278.136 531.935 240.732C541.901 203.328 517.721 113.377 503.985 116.361C490.249 119.346 501.778 277.439 481.174 279.144C481.174 279.144 460.144 220.111 456.955 213.483C448.951 196.881 447.66 172.655 447.66 132.279C447.66 101.27 424.332 46.3979 411.19 32.8057C401.185 22.4566 361.165 17.2885 357.292 26.3327C354.194 33.5551 410.196 89.5775 408.273 135.47C406.349 181.376 429.38 204.245 437.875 208.961C446.369 213.677 359.694 219.478 359.694 219.478Z" fill="#E63946" stroke="#E63946" stroke-width="3" stroke-miterlimit="10"/>
<path d="M252.737 270.513C252.737 270.513 252.737 294.287 252.737 294.674C252.737 295.062 252.737 314.442 277.265 306.69C277.265 306.69 292.757 324.779 308.249 307.982C308.249 307.982 332.777 324.779 339.232 300.23C339.232 300.23 381.834 317.026 424.436 318.318C444.833 318.939 442.316 307.982 467.593 318.318C467.593 318.318 495.116 326.071 481.083 270.513C467.051 214.956 424.888 180.976 385.294 198.612C345.7 216.248 352.154 242.089 332.79 243.381C313.425 244.673 376.683 243.381 399.92 230.46C423.158 217.54 380.556 252.425 295.352 242.089C210.148 231.752 252.737 270.513 252.737 270.513Z" fill="white" stroke="#E63946" stroke-width="3" stroke-miterlimit="10"/>
<path d="M20.6078 291.586C20.6078 291.586 -2.11326 298.305 9.11817 268.252C20.3496 238.2 71.9884 238.213 75.8613 233.044C79.7342 227.876 102.081 222.062 102.081 222.062L114.59 278.265C114.59 278.265 101.681 286.018 71.9884 283.434C71.9884 283.434 59.0787 288.602 52.6238 283.434C44.8909 286.018 37.6486 301.031 20.6078 291.586Z" fill="white" stroke="#E63946" stroke-width="3" stroke-miterlimit="10"/>
<path d="M187.543 324.133C187.543 324.133 175.924 325.425 173.342 320.256C170.76 315.088 153.978 333.177 148.814 298.292C148.814 298.292 146.8 290.049 125.861 291.586C106.238 293.02 71.5624 285.165 79.7858 233.083C80.328 229.608 81.0768 225.938 82.0192 222.062C82.0192 222.062 71.3558 207.85 86.8474 163.921C86.8474 163.921 88.1384 136.788 82.9745 122.576C77.8107 108.364 88.1384 54.0984 101.048 54.0984C113.958 54.0984 132.987 78.4273 132.987 78.4273C132.987 78.4273 156.56 100.611 157.851 104.488C157.851 104.488 175.924 91.5672 193.998 104.488C212.071 117.408 235.064 89.2157 235.064 89.2157C235.064 89.2157 248.219 39.8861 271.456 41.1781C294.693 42.4701 310.185 118.7 307.603 152.293C307.603 152.293 337.295 172.965 334.713 202.682C334.713 202.682 355.369 240.151 324.386 263.407C293.402 286.664 268.874 284.08 261.128 286.664C253.382 289.248 235.309 307.336 222.67 317.659C222.67 317.659 212.071 320.256 205.617 317.672C199.162 315.088 201.744 321.548 187.543 324.133Z" fill="white" stroke="#E63946" stroke-width="3" stroke-miterlimit="10"/>
<path d="M182.379 268.575C182.379 268.575 155.269 267.283 161.724 291.832C166.887 309.92 174.633 303.46 179.797 313.796C179.797 313.796 186.252 320.256 196.58 302.168C205.617 293.124 212.071 285.372 206.908 277.62C201.744 269.867 193.998 267.283 182.379 268.575Z" fill="#E63946"/>
<path d="M223.69 216.894C223.69 216.894 218.526 201.39 231.436 196.222C244.346 191.053 250.8 200.098 250.8 200.098C250.8 200.098 252.091 207.85 239.182 214.31C231.436 216.894 230.145 214.31 223.69 216.894Z" fill="#E63946"/>
<path d="M163.015 222.062C163.015 222.062 165.597 202.682 152.687 200.098C139.777 197.514 138.486 209.142 138.486 209.142C138.486 209.142 143.65 220.77 148.814 220.77C153.978 220.77 163.015 222.062 163.015 222.062Z" fill="#E63946"/>
<path d="M241.764 200.098C241.764 200.098 245.637 205.266 234.018 209.142C234.018 209.142 225.046 207.85 230.816 200.098C230.816 200.098 239.182 198.806 241.764 200.098Z" fill="white"/>
<path d="M156.56 215.602C156.56 215.602 159.142 205.266 151.396 205.266C143.65 205.266 144.941 207.85 144.941 207.85C144.941 207.85 144.941 215.602 156.56 215.602Z" fill="white"/>
<path d="M232.727 200.098C232.727 200.098 230.145 205.266 235.309 205.266C240.473 205.266 236.755 199.077 236.755 199.077C236.755 199.077 234.018 197.514 232.727 200.098Z" fill="#E63946"/>
<path d="M151.977 207.566C151.977 207.566 149.614 211.726 154.339 211.726C159.064 211.726 155.656 206.739 155.656 206.739C155.656 206.739 153.165 205.473 151.977 207.566Z" fill="#E63946"/>
<path d="M257.901 130.974C257.901 130.974 272.101 113.777 257.901 110.754C257.901 110.754 254.028 101.257 270.811 85.7531C287.593 70.2487 275.974 142.602 273.392 143.894C270.811 145.186 257.901 130.974 257.901 130.974Z" fill="#E63946"/>
<path d="M107.503 157.461L120.955 138.545C120.955 138.545 112.667 126.4 114.603 122.55C116.54 118.7 122.995 125.16 122.995 125.16C122.995 125.16 119.122 110.948 110.085 108.364C101.048 105.78 103.63 158.753 107.503 157.461Z" fill="#E63946"/>
<path opacity="0.5" d="M169.469 179.425C169.469 179.425 162.64 219.478 177.022 215.602C191.403 211.726 175.924 188.469 179.797 139.372C183.67 90.2752 183.67 211.726 191.416 211.726C199.162 211.726 205.616 207.85 200.453 192.346C195.289 176.841 201.744 167.797 212.071 167.797C222.399 167.797 249.587 178.069 250.839 191.015C250.839 191.015 265.001 206.558 252.091 231.106C252.091 231.106 252.091 244.027 261.128 220.77C270.165 197.514 276.039 199.904 288.587 201.932C301.148 203.974 342.188 183.301 315.852 159.399C288.226 144.54 284.146 156.66 246.166 120.237C246.166 120.237 222.386 115.418 232.068 92.5104C232.068 92.5104 219.804 110.948 193.985 104.487C179.784 96.7353 174.62 95.4433 157.838 104.487C141.055 113.532 119.483 145.458 107.49 157.461C86.8345 178.133 75.2157 172.965 81.6706 222.062C83.5296 236.21 82.5097 216.894 95.0063 216.894C107.503 216.894 117.818 203.974 129.436 234.982C142.346 249.195 120.296 211.532 124.221 201.932C128.145 192.345 142.927 171.143 156.844 171.402C170.76 171.673 169.469 179.425 169.469 179.425Z" fill="#E63946"/>
<path d="M135.995 83.5696C135.995 83.5696 149.795 107.55 140.913 113.764C132.031 119.979 107.503 147.112 107.503 157.448L157.851 104.475C157.851 104.488 149.008 94.9653 135.995 83.5696Z" fill="#E63946"/>
<path d="M232.081 92.5104C232.081 92.5104 223.69 101.903 219.817 104.488C215.944 107.072 218.526 115.121 232.081 119.488C245.637 123.855 250.8 126.452 254.673 132.912C254.673 132.912 268.874 140.664 275.329 147.124C281.784 153.585 272.398 135.535 246.76 116.788C246.76 116.788 231.436 116.116 232.727 105.78C231.436 96.7353 235.309 88.9831 232.081 92.5104Z" fill="#E63946"/>
<path opacity="0.6" d="M179.171 305.221C179.171 305.221 186.917 314.265 172.07 320.079C172.07 320.079 175.504 326.178 185.083 324.097C194.662 322.017 199.581 317.689 199.581 317.689C199.581 317.689 187.536 316.849 182.708 305.221C177.88 293.593 179.171 305.221 179.171 305.221Z" fill="#E63946" stroke="#E63946" stroke-miterlimit="10"/>
<path d="M180.171 305.221C180.171 305.221 187.917 314.265 173.07 320.079C173.07 320.079 176.504 326.178 186.083 324.097C195.662 322.017 200.581 317.689 200.581 317.689C200.581 317.689 188.536 316.849 183.708 305.221C178.88 293.593 180.171 305.221 180.171 305.221Z" stroke="#E63946" stroke-width="3" stroke-miterlimit="10"/>
<path opacity="0.6" d="M549.66 314.92C549.66 314.92 550.292 291.832 560.62 291.832C570.948 291.832 577.403 293.124 579.985 298.292C587.73 311.212 598.484 312.22 598.484 312.22L606.269 308.589C606.269 308.589 592.894 306.031 582.838 291.819C577.093 283.692 558.619 283.886 554.165 289.235C547.71 296.987 543.747 302.62 544.431 314.016L549.66 314.92Z" fill="#E63946"/>
<path opacity="0.6" d="M606.282 280.294C606.282 280.294 624.239 288.666 619.217 304.778C619.217 304.778 633.056 301.199 641.706 310.398C650.355 319.597 614.208 279.545 623.245 261.456C623.245 261.469 604.81 269.415 606.282 280.294Z" fill="#E63946"/>
<path opacity="0.6" d="M550.163 309.274C550.163 309.274 551.945 314.843 559.51 314.326C567.075 313.796 565.784 303.46 565.784 303.46C565.784 303.46 565.487 314.417 571.451 316.044C577.403 317.672 578.694 304.752 578.694 304.752C578.694 304.752 577.312 317.517 583.16 316.949C589.008 316.38 561.072 316.962 561.072 316.962L549.647 314.92L550.163 309.274Z" fill="#E63946"/>
<path d="M708.333 309.184C708.333 309.184 714.71 319.817 842.658 310.204C1045.28 294.971 681.222 222.618 681.222 222.618C713.497 294.971 708.333 309.184 708.333 309.184Z" stroke="#E63946" stroke-width="3" stroke-miterlimit="10"/>
<path d="M224.323 225.938C224.323 225.938 236.548 257.296 226.065 262.206C215.583 267.115 221.663 243.523 224.323 225.938Z" fill="#A8DADC"/>
</g>
<defs>
<filter id="filter0_d_2319_255" x="0.5" y="0.500488" width="909.137" height="333.529" filterUnits="userSpaceOnUse" color-interpolation-filters="sRGB">
<feFlood flood-opacity="0" result="BackgroundImageFix"/>
<feColorMatrix in="SourceAlpha" type="matrix" values="0 0 0 0 0 0 0 0 0 0 0 0 0 0 0 0 0 0 127 0" result="hardAlpha"/>
<feOffset dy="4"/>
<feGaussianBlur stdDeviation="2"/>
<feComposite in2="hardAlpha" operator="out"/>
<feColorMatrix type="matrix" values="0 0 0 0 0 0 0 0 0 0 0 0 0 0 0 0 0 0 0.25 0"/>
<feBlend mode="normal" in2="BackgroundImageFix" result="effect1_dropShadow_2319_255"/>
<feBlend mode="normal" in="SourceGraphic" in2="effect1_dropShadow_2319_255" result="shape"/>
</filter>
</defs>
</svg>
