<svg version="1.1" id="Layer_1" xmlns="http://www.w3.org/2000/svg" xmlns:xlink="http://www.w3.org/1999/xlink" x="0px" y="0px"
	 width="100%" viewBox="0 0 67 67" enable-background="new 0 0 67 67" xml:space="preserve">
<path fill="#FFFEFE" opacity="1.000000" stroke="none" 
	d="
M47.000557,68.000000 
	C31.333742,68.000000 16.167097,68.000000 1.000340,68.000000 
	C1.000226,45.666851 1.000226,23.333702 1.000113,1.000415 
	C23.333115,1.000276 45.666229,1.000276 67.999512,1.000138 
	C67.999672,23.333082 67.999672,45.666164 67.999832,67.999619 
	C61.166912,68.000000 54.333820,68.000000 47.000557,68.000000 
M54.297440,12.335565 
	C53.813416,11.986026 53.329388,11.636488 52.176327,11.002269 
	C51.441845,10.660549 50.545856,10.485085 49.997192,9.952085 
	C42.203148,2.380567 27.021128,3.610740 19.497231,10.961903 
	C11.237051,19.032444 10.119446,31.441246 16.786806,41.979588 
	C17.712658,43.442982 18.404341,45.054531 19.204430,46.597492 
	C18.710621,46.355988 18.216812,46.114483 17.723003,45.872978 
	C14.316699,49.135433 10.759937,52.258236 7.556825,55.709286 
	C5.410403,58.021851 4.909179,60.724960 8.011467,63.703716 
	C11.537314,67.625282 13.779259,68.060822 16.798330,64.448959 
	C20.102812,60.495651 22.760338,56.001564 25.789988,51.612530 
	C37.680786,57.983894 50.918930,55.251923 58.274982,44.119350 
	C65.426842,33.295811 63.116447,19.713625 54.046448,12.970265 
	C54.046448,12.970265 54.134560,12.921948 54.297440,12.335565 
z"/>
<path fill="#E23C49" opacity="1.000000" stroke="none" 
	d="
M7.984780,62.969681 
	C4.909179,60.724960 5.410403,58.021851 7.556825,55.709286 
	C10.759937,52.258236 14.316699,49.135433 17.723003,45.872978 
	C18.216812,46.114483 18.710621,46.355988 19.204430,46.597492 
	C18.404341,45.054531 17.712658,43.442982 16.786806,41.979588 
	C10.119446,31.441246 11.237051,19.032444 19.497231,10.961903 
	C27.021128,3.610740 42.203148,2.380567 49.997192,9.952085 
	C50.545856,10.485085 51.441845,10.660549 52.550945,11.477552 
	C53.328564,12.275873 53.731560,12.598910 54.134560,12.921948 
	C54.134560,12.921948 54.046448,12.970265 53.976486,13.292244 
	C58.253197,20.611967 59.921703,28.105225 57.084721,36.003181 
	C52.344868,49.198582 38.385250,54.816998 25.161125,48.879341 
	C21.897566,47.413998 20.147800,46.537205 19.985023,51.456013 
	C19.836517,55.943523 12.316018,62.635414 7.984780,62.969681 
M46.940456,14.060985 
	C46.940456,14.060985 46.936317,14.150893 46.920368,13.424446 
	C40.103924,8.069181 32.271030,7.683955 25.243883,12.358383 
	C18.525387,16.827497 15.279149,25.122002 17.560846,32.858566 
	C18.690828,36.689999 19.522701,41.036705 24.978539,42.525349 
	C32.797379,49.552868 45.126339,47.621426 50.838943,38.470680 
	C56.260357,29.786375 54.979183,21.923298 47.691921,14.358014 
	C47.484833,14.045259 47.205261,13.953627 46.940456,14.060985 
z"/>
<path fill="#191616" opacity="1.000000" stroke="none" 
	d="
M7.998124,63.336700 
	C12.316018,62.635414 19.836517,55.943523 19.985023,51.456013 
	C20.147800,46.537205 21.897566,47.413998 25.161125,48.879341 
	C38.385250,54.816998 52.344868,49.198582 57.084721,36.003181 
	C59.921703,28.105225 58.253197,20.611967 53.995049,13.245554 
	C63.116447,19.713625 65.426842,33.295811 58.274982,44.119350 
	C50.918930,55.251923 37.680786,57.983894 25.789988,51.612530 
	C22.760338,56.001564 20.102812,60.495651 16.798330,64.448959 
	C13.779259,68.060822 11.537314,67.625282 7.998124,63.336700 
z"/>
<path fill="#191616" opacity="1.000000" stroke="none" 
	d="
M54.216000,12.628757 
	C53.731560,12.598910 53.328564,12.275873 52.885460,11.619892 
	C53.329388,11.636488 53.813416,11.986026 54.216000,12.628757 
z"/>
<path fill="#FFFEFE" opacity="1.000000" stroke="none" 
	d="
M47.924198,14.771908 
	C54.979183,21.923298 56.260357,29.786375 50.838943,38.470680 
	C45.126339,47.621426 32.797379,49.552868 24.649647,41.881737 
	C19.746737,34.835850 19.409719,27.902187 23.303057,21.384758 
	C26.984713,15.221680 32.872047,12.044472 40.394947,13.026473 
	C42.586983,13.312610 44.756485,13.771298 46.936317,14.150893 
	C46.936317,14.150893 46.940456,14.060985 46.854141,14.368349 
	C47.153282,14.707778 47.538742,14.739842 47.924198,14.771908 
z"/>
<path fill="#181414" opacity="1.000000" stroke="none" 
	d="
M46.928345,13.787670 
	C44.756485,13.771298 42.586983,13.312610 40.394947,13.026473 
	C32.872047,12.044472 26.984713,15.221680 23.303057,21.384758 
	C19.409719,27.902187 19.746737,34.835850 24.446716,41.609489 
	C19.522701,41.036705 18.690828,36.689999 17.560846,32.858566 
	C15.279149,25.122002 18.525387,16.827497 25.243883,12.358383 
	C32.271030,7.683955 40.103924,8.069181 46.928345,13.787670 
z"/>
<path fill="#181414" opacity="1.000000" stroke="none" 
	d="
M47.808060,14.564960 
	C47.538742,14.739842 47.153282,14.707778 46.810520,14.379416 
	C47.205261,13.953627 47.484833,14.045259 47.808060,14.564960 
z"/>
</svg>