<svg width="236" height="78" viewBox="0 0 236 78" fill="none" xmlns="http://www.w3.org/2000/svg">
<path d="M50.0248 21.6268C51.5626 17.1625 66.5435 8.35703 71.203 5.47692C75.8594 2.59401 90.3144 -1.6044 116.764 3.1538C132.757 6.23264 139.216 7.63211 151.21 13.23C170.894 22.4665 174.104 29.1839 174.344 35.0617C174.344 35.0617 181.292 40.6596 183.319 48.6366C185.346 56.6136 197.282 71.8286 183.319 69.819C170.912 68.0332 172.684 65.8445 168.704 66.5582C168.206 66.6478 167.615 66.7821 166.892 66.9696C160.434 68.649 165.973 69.9757 152.133 68.7526C143.211 66.9696 144.748 66.9696 131.831 68.0892C118.914 69.2088 48.487 26.0911 50.0248 21.6268Z" fill="white" stroke="#E63946" stroke-width="0.5" stroke-miterlimit="10"/>
<path d="M50.0248 21.6264C51.5626 17.162 66.5435 8.35649 71.203 5.47636C75.8624 2.59622 90.3144 -1.60502 116.764 3.15322C133.916 5.98857 139.452 8.22774 151.21 13.2295C170.894 22.4661 174.104 29.1836 174.344 35.0614C174.344 35.0614 181.292 40.6593 183.319 48.6364C185.346 56.6134 197.282 71.8286 183.319 69.819C169.356 67.8093 173.354 65.2902 166.895 66.9696C160.437 68.649 165.976 69.9757 152.136 68.7526C143.214 66.9696 144.752 66.9696 131.834 68.0892C118.917 69.2088 48.487 26.0879 50.0248 21.6264Z" stroke="#E63946" stroke-width="0.5" stroke-miterlimit="10"/>
<path opacity="0.4" d="M50.0248 21.6264C51.5626 17.162 66.5435 8.35649 71.203 5.47636C75.8624 2.59622 90.3144 -1.60502 116.764 3.15322C132.757 6.23208 139.216 7.63156 151.21 13.2295C170.894 22.4661 174.104 29.1836 174.344 35.0614C174.344 35.0614 181.292 40.6593 183.319 48.6364C185.346 56.6134 197.282 71.8286 183.319 69.819C170.912 68.0332 172.684 65.8444 168.704 66.5582C168.206 66.6477 167.615 66.7821 166.892 66.9696C160.434 68.649 165.973 69.9757 152.133 68.7526C143.211 66.9696 144.748 66.9696 131.831 68.0892C118.914 69.2088 48.487 26.0907 50.0248 21.6264Z" fill="#E63946" stroke="#E63946" stroke-width="0.5" stroke-miterlimit="10"/>
<path opacity="0.6" d="M107.198 48.3162C107.198 48.3162 114.579 31.1814 101.126 11.9224C101.126 11.9224 93.7878 1.44322 82.1689 2.00966C79.8574 2.12295 101 1.52588e-05 118.249 3.42576C132.515 7.33987 130.886 5.1619 141.486 9.09017C149.13 11.9224 153.717 14.1881 164.418 20.7022C164.418 20.7022 169.31 24.1009 171.756 27.7827C174.487 31.8951 153.411 20.7022 150.353 27.7827C147.296 34.8632 151.992 37.1545 151.937 40.825C151.882 44.4956 153.717 63.1853 149.742 63.7517L144.238 67.7168L136.594 68C136.594 68 139.652 65.451 140.569 62.0524C141.56 58.3875 145.635 61.1744 147.993 52.9752C150.353 44.7759 144.626 25.0581 141.373 25.7124C138.12 26.3666 140.85 61.0215 135.97 61.3953C135.97 61.3953 130.99 48.455 130.234 47.0021C128.339 43.3627 128.033 38.0523 128.033 29.2017C128.033 22.4044 122.508 10.376 119.395 7.39651C117.025 5.12792 107.547 3.99504 106.63 5.97758C105.896 7.56078 119.16 19.8412 118.704 29.9012C118.249 39.964 123.703 44.977 125.715 46.0108C127.727 47.0445 107.198 48.3162 107.198 48.3162Z" fill="#E63946" stroke="#E63946" stroke-width="0.5" stroke-miterlimit="10"/>
<path d="M81.5155 58.5327C81.5155 58.5327 81.5155 64.1577 81.5155 64.2495C81.5155 64.3412 81.5155 68.9268 87.3326 67.0925C87.3326 67.0925 91.0066 71.3724 94.6805 67.3982C94.6805 67.3982 100.498 71.3724 102.028 65.564C102.028 65.564 112.132 69.5382 122.235 69.8439C127.073 69.9906 126.476 67.3982 132.47 69.8439C132.47 69.8439 138.998 71.6781 135.67 58.5327C132.342 45.3874 122.342 37.3473 112.952 41.5202C103.562 45.6931 105.093 51.8072 100.501 52.1129C95.9082 52.4186 110.91 52.1129 116.421 49.0559C121.932 45.9988 111.829 54.2529 91.622 51.8072C71.4152 49.3616 81.5155 58.5327 81.5155 58.5327Z" fill="white" stroke="#E63946" stroke-width="0.5" stroke-miterlimit="10"/>
<path d="M26.4643 63.5188C26.4643 63.5188 21.0759 65.1084 23.7395 57.9977C26.4031 50.887 38.6496 50.8901 39.5681 49.6672C40.4866 48.4444 45.7863 47.0687 45.7863 47.0687L48.753 60.3669C48.753 60.3669 45.6914 62.2012 38.6496 61.5898C38.6496 61.5898 35.588 62.8126 34.0572 61.5898C32.2233 62.2012 30.5057 65.7535 26.4643 63.5188Z" fill="white" stroke="#E63946" stroke-width="0.5" stroke-miterlimit="10"/>
<path d="M66.0547 71.2196C66.0547 71.2196 63.2992 71.5253 62.6869 70.3025C62.0746 69.0797 58.0944 73.3595 56.8698 65.1055C56.8698 65.1055 56.3922 63.1551 51.4262 63.5189C46.7725 63.8582 38.549 61.9995 40.4993 49.6765C40.6278 48.8541 40.8054 47.9859 41.0289 47.0688C41.0289 47.0688 38.5 43.706 42.174 33.312C42.174 33.312 42.4801 26.8922 41.2555 23.5294C40.0308 20.1667 42.4801 7.327 45.5418 7.327C48.6034 7.327 53.1162 13.0835 53.1162 13.0835C53.1162 13.0835 58.7068 18.3324 59.0129 19.2495C59.0129 19.2495 63.2992 16.1925 67.5855 19.2495C71.8718 22.3066 77.3245 15.6361 77.3245 15.6361C77.3245 15.6361 80.4443 3.96423 85.9553 4.26994C91.4662 4.57565 95.1402 22.6123 94.5278 30.5607C94.5278 30.5607 101.57 35.452 100.957 42.4832C100.957 42.4832 105.856 51.3487 98.508 56.8514C91.16 62.3541 85.3429 61.7427 83.506 62.3541C81.669 62.9655 77.3827 67.2454 74.3854 69.688C74.3854 69.688 71.8718 70.3025 70.341 69.6911C68.8101 69.0797 69.4225 70.6082 66.0547 71.2196Z" fill="white" stroke="#E63946" stroke-width="0.5" stroke-miterlimit="10"/>
<path d="M64.8303 58.0742C64.8303 58.0742 58.4008 57.7685 59.9317 63.5769C61.1563 67.8568 62.9933 66.3283 64.2179 68.7739C64.2179 68.7739 65.7488 70.3024 68.1981 66.0226C70.3412 63.8826 71.872 62.0484 70.6474 60.2142C69.4227 58.3799 67.5857 57.7685 64.8303 58.0742Z" fill="#E63946"/>
<path d="M74.6264 45.846C74.6264 45.846 73.4018 42.1775 76.4634 40.9547C79.525 39.7319 81.0559 41.8718 81.0559 41.8718C81.0559 41.8718 81.362 43.706 78.3004 45.2346C76.4634 45.846 76.1572 45.2346 74.6264 45.846Z" fill="#E63946"/>
<path d="M60.2373 47.0687C60.2373 47.0687 60.8496 42.4831 57.788 41.8717C54.7263 41.2603 54.4202 44.0117 54.4202 44.0117C54.4202 44.0117 55.6448 46.763 56.8695 46.763C58.0941 46.763 60.2373 47.0687 60.2373 47.0687Z" fill="#E63946"/>
<path d="M78.9134 41.8717C78.9134 41.8717 79.8319 43.0945 77.0764 44.0117C77.0764 44.0117 74.9486 43.7059 76.3172 41.8717C76.3172 41.8717 78.3011 41.566 78.9134 41.8717Z" fill="white"/>
<path d="M58.706 45.5403C58.706 45.5403 59.3183 43.0946 57.4813 43.0946C55.6444 43.0946 55.9505 43.706 55.9505 43.706C55.9505 43.706 55.9505 45.5403 58.706 45.5403Z" fill="white"/>
<path d="M76.7695 41.8718C76.7695 41.8718 76.1572 43.0946 77.3819 43.0946C78.6065 43.0946 77.7248 41.6303 77.7248 41.6303C77.7248 41.6303 77.0757 41.2604 76.7695 41.8718Z" fill="#E63946"/>
<path d="M57.6191 43.6387C57.6191 43.6387 57.0588 44.6231 58.1794 44.6231C59.2999 44.6231 58.4916 43.4431 58.4916 43.4431C58.4916 43.4431 57.9007 43.1435 57.6191 43.6387Z" fill="#E63946"/>
<path d="M82.74 25.5164C82.74 25.5164 86.1078 21.4475 82.74 20.7321C82.74 20.7321 81.8215 18.4852 85.8017 14.8167C89.7818 11.1482 87.0263 28.2678 86.414 28.5735C85.8017 28.8792 82.74 25.5164 82.74 25.5164Z" fill="#E63946"/>
<path d="M47.0724 31.7834L50.2626 27.3079C50.2626 27.3079 48.2971 24.4342 48.7563 23.5232C49.2156 22.6122 50.7464 24.1407 50.7464 24.1407C50.7464 24.1407 49.8279 20.778 47.6847 20.1666C45.5416 19.5552 46.1539 32.0891 47.0724 31.7834Z" fill="#E63946"/>
<path opacity="0.5" d="M61.7685 36.9805C61.7685 36.9805 60.1489 46.4574 63.5595 45.5403C66.9702 44.6232 63.2993 39.1205 64.2178 27.5036C65.1363 15.8868 65.1363 44.6232 66.9732 44.6232C68.8102 44.6232 70.341 43.706 69.1164 40.0376C67.8917 36.3691 69.4225 34.2292 71.8719 34.2292C74.3212 34.2292 80.7689 36.6595 81.0659 39.7227C81.0659 39.7227 84.4245 43.4003 81.3629 49.2088C81.3629 49.2088 81.3629 52.2658 83.506 46.7631C85.6492 41.2604 87.0422 41.826 90.0181 42.3059C92.9971 42.7889 102.73 37.8976 96.4843 32.2421C89.9324 28.7264 88.9649 31.594 79.9576 22.9761C79.9576 22.9761 74.3181 21.8358 76.6143 16.4156C76.6143 16.4156 73.7058 20.7781 67.5825 19.2495C64.2147 17.4153 62.9901 17.1096 59.0099 19.2495C55.0298 21.3895 49.9138 28.9435 47.0696 31.7835C42.171 36.6748 39.4155 35.452 40.9463 47.0688C41.3872 50.4163 41.1453 45.846 44.109 45.846C47.0727 45.846 49.5189 42.7889 52.2744 50.1259C55.336 53.4886 50.1067 44.5773 51.0375 42.3059C51.9682 40.0376 55.4738 35.0209 58.7742 35.0821C62.0746 35.1463 61.7685 36.9805 61.7685 36.9805Z" fill="#E63946"/>
<path d="M53.8298 14.3002C53.8298 14.3002 57.1027 19.9741 54.9963 21.4445C52.8898 22.915 47.0728 29.3348 47.0728 31.7804L59.0131 19.2465C59.0131 19.2496 56.9159 16.9965 53.8298 14.3002Z" fill="#E63946"/>
<path d="M76.617 16.4156C76.617 16.4156 74.627 18.6381 73.7085 19.2495C72.79 19.8609 73.4023 21.7654 76.617 22.7987C79.8317 23.832 81.0564 24.4465 81.9749 25.975C81.9749 25.975 85.3427 27.8093 86.8735 29.3378C88.4043 30.8663 86.1785 26.5956 80.0981 22.1598C80.0981 22.1598 76.464 22.0008 76.7701 19.5552C76.464 17.4152 77.3824 15.581 76.617 16.4156Z" fill="#E63946"/>
<path opacity="0.6" d="M64.0691 66.7449C64.0691 66.7449 65.9061 68.8849 62.3853 70.2605C62.3853 70.2605 63.1996 71.7035 65.4714 71.2113C67.7431 70.7191 68.9096 69.695 68.9096 69.695C68.9096 69.695 66.0531 69.4963 64.908 66.7449C63.763 63.9936 64.0691 66.7449 64.0691 66.7449Z" fill="#E63946" stroke="#E63946" stroke-width="0.5" stroke-miterlimit="10"/>
<path d="M64.3055 66.7449C64.3055 66.7449 66.1425 68.8849 62.6216 70.2605C62.6216 70.2605 63.436 71.7035 65.7077 71.2113C67.9794 70.7191 69.1459 69.695 69.1459 69.695C69.1459 69.695 66.2894 69.4963 65.1444 66.7449C63.9993 63.9936 64.3055 66.7449 64.3055 66.7449Z" stroke="#E63946" stroke-width="0.5" stroke-miterlimit="10"/>
<path opacity="0.6" d="M151.933 69.0399C151.933 69.0399 152.083 63.5769 154.533 63.5769C156.982 63.5769 158.513 63.8826 159.125 65.1054C160.962 68.1625 163.512 68.401 163.512 68.401L165.359 67.5419C165.359 67.5419 162.187 66.9366 159.802 63.5739C158.439 61.651 154.058 61.6968 153.002 62.9624C151.471 64.7967 150.531 66.1296 150.693 68.8259L151.933 69.0399Z" fill="#E63946"/>
<path opacity="0.6" d="M165.361 60.847C165.361 60.847 169.62 62.8279 168.429 66.6401C168.429 66.6401 171.8 65.6396 173.851 67.8162C176.437 69.1417 167.241 60.6697 169.384 56.3898C169.384 56.3928 165.012 58.2729 165.361 60.847Z" fill="#E63946"/>
<path opacity="0.6" d="M152.052 67.7038C152.052 67.7038 152.475 69.0214 154.269 68.8991C156.063 68.7738 155.757 66.3281 155.757 66.3281C155.757 66.3281 155.687 68.9205 157.101 69.3057C158.512 69.6909 158.819 66.6338 158.819 66.6338C158.819 66.6338 158.491 69.6542 159.878 69.5197C161.265 69.3852 154.639 69.5228 154.639 69.5228L151.93 69.0397L152.052 67.7038Z" fill="#E63946"/>
<path d="M189.953 65.7389C189.953 65.7389 193.462 63.9156 213.599 41.0233C245.487 4.76992 184.021 50.6291 184.021 50.6291C185.587 54.5211 189.953 65.7389 189.953 65.7389Z" fill="white" stroke="#E63946" stroke-width="0.5" stroke-miterlimit="10"/>
<path opacity="0.3" d="M190.067 65.6592C190.067 65.6592 191.724 65.1863 212.792 41.4526C246.153 3.86688 184.07 50.6774 184.07 50.6774C188.844 61.3753 190.067 65.6592 190.067 65.6592Z" fill="#E63946" stroke="#E63946" stroke-width="0.5" stroke-miterlimit="10"/>
<path d="M14.195 34.8843V37.6543H12.505V34.8843L9.865 30.3693H11.355C11.5017 30.3693 11.6167 30.4043 11.7 30.4743C11.7867 30.541 11.8583 30.6276 11.915 30.7343L12.945 32.8543C13.0317 33.021 13.11 33.1776 13.18 33.3243C13.25 33.4676 13.3117 33.6093 13.365 33.7493C13.415 33.606 13.4717 33.4626 13.535 33.3193C13.6017 33.1726 13.6783 33.0176 13.765 32.8543L14.785 30.7343C14.8083 30.691 14.8367 30.6476 14.87 30.6043C14.9033 30.561 14.9417 30.5226 14.985 30.4893C15.0317 30.4526 15.0833 30.4243 15.14 30.4043C15.2 30.381 15.265 30.3693 15.335 30.3693H16.835L14.195 34.8843ZM18.7469 35.5443C18.4369 35.5576 18.1819 35.5843 17.9819 35.6243C17.7819 35.6643 17.6235 35.7143 17.5069 35.7743C17.3902 35.8343 17.3085 35.9026 17.2619 35.9793C17.2185 36.056 17.1969 36.1393 17.1969 36.2293C17.1969 36.406 17.2452 36.531 17.3419 36.6043C17.4385 36.6743 17.5802 36.7093 17.7669 36.7093C17.9669 36.7093 18.1419 36.6743 18.2919 36.6043C18.4419 36.5343 18.5935 36.421 18.7469 36.2643V35.5443ZM15.9569 33.1893C16.2702 32.9126 16.6169 32.7076 16.9969 32.5743C17.3802 32.4376 17.7902 32.3693 18.2269 32.3693C18.5402 32.3693 18.8219 32.421 19.0719 32.5243C19.3252 32.6243 19.5385 32.766 19.7119 32.9493C19.8885 33.1293 20.0235 33.3443 20.1169 33.5943C20.2102 33.8443 20.2569 34.1176 20.2569 34.4143V37.6543H19.5469C19.4002 37.6543 19.2885 37.6343 19.2119 37.5943C19.1385 37.5543 19.0769 37.471 19.0269 37.3443L18.9169 37.0593C18.7869 37.1693 18.6619 37.266 18.5419 37.3493C18.4219 37.4326 18.2969 37.5043 18.1669 37.5643C18.0402 37.621 17.9035 37.6626 17.7569 37.6893C17.6135 37.7193 17.4535 37.7343 17.2769 37.7343C17.0402 37.7343 16.8252 37.7043 16.6319 37.6443C16.4385 37.581 16.2735 37.4893 16.1369 37.3693C16.0035 37.2493 15.9002 37.101 15.8269 36.9243C15.7535 36.7443 15.7169 36.5376 15.7169 36.3043C15.7169 36.1176 15.7635 35.9293 15.8569 35.7393C15.9502 35.546 16.1119 35.371 16.3419 35.2143C16.5719 35.0543 16.8819 34.921 17.2719 34.8143C17.6619 34.7076 18.1535 34.6476 18.7469 34.6343V34.4143C18.7469 34.111 18.6835 33.8926 18.5569 33.7593C18.4335 33.6226 18.2569 33.5543 18.0269 33.5543C17.8435 33.5543 17.6935 33.5743 17.5769 33.6143C17.4602 33.6543 17.3552 33.6993 17.2619 33.7493C17.1719 33.7993 17.0835 33.8443 16.9969 33.8843C16.9102 33.9243 16.8069 33.9443 16.6869 33.9443C16.5802 33.9443 16.4902 33.9176 16.4169 33.8643C16.3435 33.811 16.2835 33.7476 16.2369 33.6743L15.9569 33.1893ZM26.0066 32.4693L23.2366 38.9993C23.19 39.1026 23.1333 39.1776 23.0666 39.2243C23 39.2743 22.8933 39.2993 22.7466 39.2993H21.5866L22.5866 37.1993L20.5166 32.4693H21.8866C22.0066 32.4693 22.0983 32.496 22.1616 32.5493C22.2283 32.6026 22.2766 32.666 22.3066 32.7393L23.1566 34.9743C23.2366 35.1776 23.3016 35.386 23.3516 35.5993C23.3883 35.4926 23.425 35.386 23.4616 35.2793C23.4983 35.1726 23.5366 35.0676 23.5766 34.9643L24.3466 32.7393C24.3766 32.6626 24.43 32.5993 24.5066 32.5493C24.5833 32.496 24.6666 32.4693 24.7566 32.4693H26.0066Z" fill="#E63946"/>
</svg>
