<svg width="218" height="72" viewBox="0 0 218 72" fill="none" xmlns="http://www.w3.org/2000/svg">
<path d="M42.0248 21.6268C43.5626 17.1625 58.5435 8.35703 63.203 5.47692C67.8594 2.59401 82.3144 -1.6044 108.764 3.1538C124.757 6.23264 131.216 7.63211 143.21 13.23C162.894 22.4665 166.104 29.1839 166.344 35.0617C166.344 35.0617 173.292 40.6596 175.319 48.6366C177.346 56.6136 189.282 71.8286 175.319 69.819C162.912 68.0332 164.684 65.8445 160.704 66.5582C160.206 66.6478 159.615 66.7821 158.892 66.9696C152.434 68.649 157.973 69.9757 144.133 68.7526C135.211 66.9696 136.748 66.9696 123.831 68.0892C110.914 69.2088 40.487 26.0911 42.0248 21.6268Z" fill="white" stroke="#E63946" stroke-width="0.5" stroke-miterlimit="10"/>
<path d="M42.0248 21.6264C43.5626 17.162 58.5435 8.35649 63.203 5.47636C67.8624 2.59622 82.3144 -1.60502 108.764 3.15322C125.916 5.98857 131.452 8.22774 143.21 13.2295C162.894 22.4661 166.104 29.1836 166.344 35.0614C166.344 35.0614 173.292 40.6593 175.319 48.6364C177.346 56.6134 189.282 71.8286 175.319 69.819C161.356 67.8093 165.354 65.2902 158.895 66.9696C152.437 68.649 157.976 69.9757 144.136 68.7526C135.214 66.9696 136.752 66.9696 123.834 68.0892C110.917 69.2088 40.487 26.0879 42.0248 21.6264Z" stroke="#E63946" stroke-width="0.5" stroke-miterlimit="10"/>
<path d="M181.953 65.7389C181.953 65.7389 185.462 63.9156 205.599 41.0233C237.487 4.76992 176.021 50.6291 176.021 50.6291C177.587 54.5211 181.953 65.7389 181.953 65.7389Z" fill="white" stroke="#E63946" stroke-width="0.5" stroke-miterlimit="10"/>
<path opacity="0.3" d="M182.067 65.6592C182.067 65.6592 183.724 65.1863 204.792 41.4526C238.153 3.86688 176.07 50.6774 176.07 50.6774C180.844 61.3753 182.067 65.6592 182.067 65.6592Z" fill="#E63946" stroke="#E63946" stroke-width="0.5" stroke-miterlimit="10"/>
<path opacity="0.4" d="M42.0248 21.6264C43.5626 17.162 58.5435 8.35649 63.203 5.47636C67.8624 2.59622 82.3144 -1.60502 108.764 3.15322C124.757 6.23208 131.216 7.63156 143.21 13.2295C162.894 22.4661 166.104 29.1836 166.344 35.0614C166.344 35.0614 173.292 40.6593 175.319 48.6364C176.746 56.6128 188.896 71.541 174.933 69.5313C162.527 67.7456 164.684 65.8444 160.704 66.5582C160.206 66.6477 159.615 66.7821 158.892 66.9696C152.434 68.649 157.973 69.9757 144.133 68.7526C135.211 66.9696 136.748 66.9696 123.831 68.0892C110.914 69.2088 40.487 26.0907 42.0248 21.6264Z" fill="#E63946" stroke="#E63946" stroke-width="0.5" stroke-miterlimit="10"/>
<path opacity="0.6" d="M99.1984 48.3162C99.1984 48.3162 106.579 31.1814 93.126 11.9224C93.126 11.9224 85.7878 1.44322 74.1689 2.00966C71.8574 2.12295 93.0005 1.52588e-05 110.249 3.42576C124.515 7.33987 122.886 5.1619 133.486 9.09017C141.13 11.9224 145.717 14.1881 156.418 20.7022C156.418 20.7022 161.31 24.1009 163.756 27.7827C166.487 31.8951 145.411 20.7022 142.353 27.7827C139.296 34.8632 143.992 37.1545 143.937 40.825C143.882 44.4956 145.717 63.1853 141.742 63.7517L136.238 67.7168L128.594 68C128.594 68 131.652 65.451 132.569 62.0524C133.56 58.3875 137.635 61.1744 139.993 52.9752C142.353 44.7759 136.626 25.0581 133.373 25.7124C130.12 26.3666 132.85 61.0215 127.97 61.3953C127.97 61.3953 122.99 48.455 122.234 47.0021C120.339 43.3627 120.033 38.0523 120.033 29.2017C120.033 22.4044 114.508 10.376 111.395 7.39651C109.025 5.12792 99.5469 3.99504 98.6297 5.97758C97.8958 7.56078 111.16 19.8412 110.704 29.9012C110.249 39.964 115.703 44.977 117.715 46.0108C119.727 47.0445 99.1984 48.3162 99.1984 48.3162Z" fill="#E63946" stroke="#E63946" stroke-width="0.5" stroke-miterlimit="10"/>
<path d="M73.5155 58.5327C73.5155 58.5327 73.5155 64.1577 73.5155 64.2495C73.5155 64.3412 73.5155 68.9268 79.3326 67.0925C79.3326 67.0925 83.0066 71.3724 86.6805 67.3982C86.6805 67.3982 92.4976 71.3724 94.0284 65.564C94.0284 65.564 104.132 69.5382 114.235 69.8439C119.073 69.9906 118.476 67.3982 124.47 69.8439C124.47 69.8439 130.998 71.6781 127.67 58.5327C124.342 45.3874 114.342 37.3473 104.952 41.5202C95.5623 45.6931 97.0931 51.8072 92.5007 52.1129C87.9082 52.4186 102.91 52.1129 108.421 49.0559C113.932 45.9988 103.829 54.2529 83.622 51.8072C63.4152 49.3616 73.5155 58.5327 73.5155 58.5327Z" fill="white" stroke="#E63946" stroke-width="0.5" stroke-miterlimit="10"/>
<path d="M18.4643 63.5188C18.4643 63.5188 13.0759 65.1084 15.7395 57.9977C18.4031 50.887 30.6496 50.8901 31.5681 49.6672C32.4866 48.4444 37.7863 47.0687 37.7863 47.0687L40.753 60.3669C40.753 60.3669 37.6914 62.2012 30.6496 61.5898C30.6496 61.5898 27.588 62.8126 26.0572 61.5898C24.2233 62.2012 22.5057 65.7535 18.4643 63.5188Z" fill="white" stroke="#E63946" stroke-width="0.5" stroke-miterlimit="10"/>
<path d="M58.0547 71.2196C58.0547 71.2196 55.2992 71.5253 54.6869 70.3025C54.0746 69.0797 50.0944 73.3595 48.8698 65.1055C48.8698 65.1055 48.3922 63.1551 43.4262 63.5189C38.7725 63.8582 30.549 61.9995 32.4993 49.6765C32.6278 48.8541 32.8054 47.9859 33.0289 47.0688C33.0289 47.0688 30.5 43.706 34.174 33.312C34.174 33.312 34.4801 26.8922 33.2555 23.5294C32.0308 20.1667 34.4801 7.327 37.5418 7.327C40.6034 7.327 45.1162 13.0835 45.1162 13.0835C45.1162 13.0835 50.7068 18.3324 51.0129 19.2495C51.0129 19.2495 55.2992 16.1925 59.5855 19.2495C63.8718 22.3066 69.3245 15.6361 69.3245 15.6361C69.3245 15.6361 72.4443 3.96423 77.9553 4.26994C83.4662 4.57565 87.1402 22.6123 86.5278 30.5607C86.5278 30.5607 93.5696 35.452 92.9573 42.4832C92.9573 42.4832 97.8559 51.3487 90.508 56.8514C83.16 62.3541 77.3429 61.7427 75.506 62.3541C73.669 62.9655 69.3827 67.2454 66.3854 69.688C66.3854 69.688 63.8718 70.3025 62.341 69.6911C60.8101 69.0797 61.4225 70.6082 58.0547 71.2196Z" fill="white" stroke="#E63946" stroke-width="0.5" stroke-miterlimit="10"/>
<path d="M56.8303 58.0742C56.8303 58.0742 50.4008 57.7685 51.9317 63.5769C53.1563 67.8568 54.9933 66.3283 56.2179 68.7739C56.2179 68.7739 57.7488 70.3024 60.1981 66.0226C62.3412 63.8826 63.872 62.0484 62.6474 60.2142C61.4227 58.3799 59.5857 57.7685 56.8303 58.0742Z" fill="#E63946"/>
<path d="M66.6264 45.846C66.6264 45.846 65.4018 42.1775 68.4634 40.9547C71.525 39.7319 73.0559 41.8718 73.0559 41.8718C73.0559 41.8718 73.362 43.706 70.3004 45.2346C68.4634 45.846 68.1572 45.2346 66.6264 45.846Z" fill="#E63946"/>
<path d="M52.2373 47.0687C52.2373 47.0687 52.8496 42.4831 49.788 41.8717C46.7263 41.2603 46.4202 44.0117 46.4202 44.0117C46.4202 44.0117 47.6448 46.763 48.8695 46.763C50.0941 46.763 52.2373 47.0687 52.2373 47.0687Z" fill="#E63946"/>
<path d="M70.9134 41.8717C70.9134 41.8717 71.8319 43.0945 69.0764 44.0117C69.0764 44.0117 66.9486 43.7059 68.3172 41.8717C68.3172 41.8717 70.3011 41.566 70.9134 41.8717Z" fill="white"/>
<path d="M50.706 45.5403C50.706 45.5403 51.3183 43.0946 49.4813 43.0946C47.6444 43.0946 47.9505 43.706 47.9505 43.706C47.9505 43.706 47.9505 45.5403 50.706 45.5403Z" fill="white"/>
<path d="M68.7695 41.8718C68.7695 41.8718 68.1572 43.0946 69.3819 43.0946C70.6065 43.0946 69.7248 41.6303 69.7248 41.6303C69.7248 41.6303 69.0757 41.2604 68.7695 41.8718Z" fill="#E63946"/>
<path d="M49.6191 43.6387C49.6191 43.6387 49.0588 44.6231 50.1794 44.6231C51.2999 44.6231 50.4916 43.4431 50.4916 43.4431C50.4916 43.4431 49.9007 43.1435 49.6191 43.6387Z" fill="#E63946"/>
<path d="M74.74 25.5164C74.74 25.5164 78.1078 21.4475 74.74 20.7321C74.74 20.7321 73.8215 18.4852 77.8017 14.8167C81.7818 11.1482 79.0263 28.2678 78.414 28.5735C77.8017 28.8792 74.74 25.5164 74.74 25.5164Z" fill="#E63946"/>
<path d="M39.0724 31.7834L42.2626 27.3079C42.2626 27.3079 40.2971 24.4342 40.7563 23.5232C41.2156 22.6122 42.7464 24.1407 42.7464 24.1407C42.7464 24.1407 41.8279 20.778 39.6847 20.1666C37.5416 19.5552 38.1539 32.0891 39.0724 31.7834Z" fill="#E63946"/>
<path opacity="0.5" d="M53.7685 36.9805C53.7685 36.9805 52.1489 46.4574 55.5595 45.5403C58.9702 44.6232 55.2993 39.1205 56.2178 27.5036C57.1363 15.8868 57.1363 44.6232 58.9732 44.6232C60.8102 44.6232 62.341 43.706 61.1164 40.0376C59.8917 36.3691 61.4225 34.2292 63.8719 34.2292C66.3212 34.2292 72.7689 36.6595 73.0659 39.7227C73.0659 39.7227 76.4245 43.4003 73.3629 49.2088C73.3629 49.2088 73.3629 52.2658 75.506 46.7631C77.6492 41.2604 79.0422 41.826 82.0181 42.3059C84.9971 42.7889 94.73 37.8976 88.4843 32.2421C81.9324 28.7264 80.9649 31.594 71.9576 22.9761C71.9576 22.9761 66.3181 21.8358 68.6143 16.4156C68.6143 16.4156 65.7058 20.7781 59.5825 19.2495C56.2147 17.4153 54.9901 17.1096 51.0099 19.2495C47.0298 21.3895 41.9138 28.9435 39.0696 31.7835C34.171 36.6748 31.4155 35.452 32.9463 47.0688C33.3872 50.4163 33.1453 45.846 36.109 45.846C39.0727 45.846 41.5189 42.7889 44.2744 50.1259C47.336 53.4886 42.1067 44.5773 43.0375 42.3059C43.9682 40.0376 47.4738 35.0209 50.7742 35.0821C54.0746 35.1463 53.7685 36.9805 53.7685 36.9805Z" fill="#E63946"/>
<path d="M45.8298 14.3002C45.8298 14.3002 49.1027 19.9741 46.9963 21.4445C44.8898 22.915 39.0728 29.3348 39.0728 31.7804L51.0131 19.2465C51.0131 19.2496 48.9159 16.9965 45.8298 14.3002Z" fill="#E63946"/>
<path d="M68.617 16.4156C68.617 16.4156 66.627 18.6381 65.7085 19.2495C64.79 19.8609 65.4023 21.7654 68.617 22.7987C71.8317 23.832 73.0564 24.4465 73.9749 25.975C73.9749 25.975 77.3427 27.8093 78.8735 29.3378C80.4043 30.8663 78.1785 26.5956 72.0981 22.1598C72.0981 22.1598 68.464 22.0008 68.7701 19.5552C68.464 17.4152 69.3824 15.581 68.617 16.4156Z" fill="#E63946"/>
<path opacity="0.6" d="M56.0691 66.7449C56.0691 66.7449 57.9061 68.8849 54.3853 70.2605C54.3853 70.2605 55.1996 71.7035 57.4714 71.2113C59.7431 70.7191 60.9096 69.695 60.9096 69.695C60.9096 69.695 58.0531 69.4963 56.908 66.7449C55.763 63.9936 56.0691 66.7449 56.0691 66.7449Z" fill="#E63946" stroke="#E63946" stroke-width="0.5" stroke-miterlimit="10"/>
<path d="M56.3055 66.7449C56.3055 66.7449 58.1425 68.8849 54.6216 70.2605C54.6216 70.2605 55.436 71.7035 57.7077 71.2113C59.9794 70.7191 61.1459 69.695 61.1459 69.695C61.1459 69.695 58.2894 69.4963 57.1444 66.7449C55.9993 63.9936 56.3055 66.7449 56.3055 66.7449Z" stroke="#E63946" stroke-width="0.5" stroke-miterlimit="10"/>
<path opacity="0.6" d="M143.933 69.0399C143.933 69.0399 144.083 63.5769 146.533 63.5769C148.982 63.5769 150.513 63.8826 151.125 65.1054C152.962 68.1625 155.512 68.401 155.512 68.401L157.359 67.5419C157.359 67.5419 154.187 66.9366 151.802 63.5739C150.439 61.651 146.058 61.6968 145.002 62.9624C143.471 64.7967 142.531 66.1296 142.693 68.8259L143.933 69.0399Z" fill="#E63946"/>
<path opacity="0.6" d="M157.361 60.847C157.361 60.847 161.62 62.8279 160.429 66.6401C160.429 66.6401 163.717 65.6181 165.768 67.7947C168.01 69.1543 159.241 60.6697 161.384 56.3898C161.384 56.3928 157.012 58.2729 157.361 60.847Z" fill="#E63946"/>
<path opacity="0.6" d="M144.052 67.7039C144.052 67.7039 144.475 69.0215 146.269 68.8992C148.063 68.7739 147.757 66.3282 147.757 66.3282C147.757 66.3282 147.687 68.9206 149.101 69.3058C150.512 69.691 150.819 66.634 150.819 66.634C150.819 66.634 150.491 69.6543 151.878 69.5198C153.265 69.3853 146.639 69.5229 146.639 69.5229L143.93 69.0399L144.052 67.7039Z" fill="#E63946"/>
<path d="M5.02117 33.8843V36.6543H3.33117V33.8843L0.691172 29.3693H2.18117C2.32784 29.3693 2.44284 29.4043 2.52617 29.4743C2.61284 29.541 2.68451 29.6276 2.74117 29.7343L3.77117 31.8543C3.85784 32.021 3.93617 32.1776 4.00617 32.3243C4.07617 32.4676 4.13784 32.6093 4.19117 32.7493C4.24117 32.606 4.29784 32.4626 4.36117 32.3193C4.42784 32.1726 4.50451 32.0176 4.59117 31.8543L5.61117 29.7343C5.63451 29.691 5.66284 29.6476 5.69617 29.6043C5.72951 29.561 5.76784 29.5226 5.81117 29.4893C5.85784 29.4526 5.90951 29.4243 5.96617 29.4043C6.02617 29.381 6.09117 29.3693 6.16117 29.3693H7.66117L5.02117 33.8843ZM9.57305 34.5443C9.26305 34.5576 9.00805 34.5843 8.80805 34.6243C8.60805 34.6643 8.44971 34.7143 8.33305 34.7743C8.21638 34.8343 8.13471 34.9026 8.08805 34.9793C8.04471 35.056 8.02305 35.1393 8.02305 35.2293C8.02305 35.406 8.07138 35.531 8.16805 35.6043C8.26471 35.6743 8.40638 35.7093 8.59305 35.7093C8.79305 35.7093 8.96805 35.6743 9.11805 35.6043C9.26805 35.5343 9.41971 35.421 9.57305 35.2643V34.5443ZM6.78305 32.1893C7.09638 31.9126 7.44305 31.7076 7.82305 31.5743C8.20638 31.4376 8.61638 31.3693 9.05305 31.3693C9.36638 31.3693 9.64805 31.421 9.89805 31.5243C10.1514 31.6243 10.3647 31.766 10.538 31.9493C10.7147 32.1293 10.8497 32.3443 10.943 32.5943C11.0364 32.8443 11.083 33.1176 11.083 33.4143V36.6543H10.373C10.2264 36.6543 10.1147 36.6343 10.038 36.5943C9.96471 36.5543 9.90305 36.471 9.85305 36.3443L9.74305 36.0593C9.61305 36.1693 9.48805 36.266 9.36805 36.3493C9.24805 36.4326 9.12305 36.5043 8.99305 36.5643C8.86638 36.621 8.72971 36.6626 8.58305 36.6893C8.43971 36.7193 8.27971 36.7343 8.10305 36.7343C7.86638 36.7343 7.65138 36.7043 7.45805 36.6443C7.26471 36.581 7.09971 36.4893 6.96305 36.3693C6.82971 36.2493 6.72638 36.101 6.65305 35.9243C6.57971 35.7443 6.54305 35.5376 6.54305 35.3043C6.54305 35.1176 6.58971 34.9293 6.68305 34.7393C6.77638 34.546 6.93805 34.371 7.16805 34.2143C7.39805 34.0543 7.70805 33.921 8.09805 33.8143C8.48805 33.7076 8.97971 33.6476 9.57305 33.6343V33.4143C9.57305 33.111 9.50971 32.8926 9.38305 32.7593C9.25971 32.6226 9.08305 32.5543 8.85305 32.5543C8.66971 32.5543 8.51971 32.5743 8.40305 32.6143C8.28638 32.6543 8.18138 32.6993 8.08805 32.7493C7.99805 32.7993 7.90971 32.8443 7.82305 32.8843C7.73638 32.9243 7.63305 32.9443 7.51305 32.9443C7.40638 32.9443 7.31638 32.9176 7.24305 32.8643C7.16971 32.811 7.10971 32.7476 7.06305 32.6743L6.78305 32.1893ZM16.8328 31.4693L14.0628 37.9993C14.0161 38.1026 13.9595 38.1776 13.8928 38.2243C13.8261 38.2743 13.7195 38.2993 13.5728 38.2993H12.4128L13.4128 36.1993L11.3428 31.4693H12.7128C12.8328 31.4693 12.9245 31.496 12.9878 31.5493C13.0545 31.6026 13.1028 31.666 13.1328 31.7393L13.9828 33.9743C14.0628 34.1776 14.1278 34.386 14.1778 34.5993C14.2145 34.4926 14.2511 34.386 14.2878 34.2793C14.3245 34.1726 14.3628 34.0676 14.4028 33.9643L15.1728 31.7393C15.2028 31.6626 15.2561 31.5993 15.3328 31.5493C15.4095 31.496 15.4928 31.4693 15.5828 31.4693H16.8328Z" fill="#E63946"/>
</svg>
