<svg width="251" height="207" viewBox="0 0 251 207" fill="none" xmlns="http://www.w3.org/2000/svg">
<g filter="url(#filter0_d_2343_441)">
<path d="M27.3401 105.787C27.1214 104.98 27.5982 104.148 28.405 103.929L200.352 57.3395C201.159 57.1209 201.99 57.5981 202.209 58.4053L223.357 136.456C223.576 137.263 223.099 138.095 222.292 138.313L50.3452 184.903C49.5384 185.122 48.707 184.645 48.4883 183.837L27.3401 105.787Z" fill="white"/>
<path d="M27.3401 105.787C27.1214 104.98 27.5982 104.148 28.405 103.929L200.352 57.3395C201.159 57.1209 201.99 57.5981 202.209 58.4053L223.357 136.456C223.576 137.263 223.099 138.095 222.292 138.313L50.3452 184.903C49.5384 185.122 48.707 184.645 48.4883 183.837L27.3401 105.787Z" fill="#318035" fill-opacity="0.44"/>
<path fill-rule="evenodd" clip-rule="evenodd" d="M26.7101 105.737C26.4362 104.726 27.0324 103.685 28.0417 103.411L200.117 56.7868C201.126 56.5133 202.166 57.1109 202.44 58.1216L223.622 136.297C223.896 137.307 223.3 138.348 222.291 138.622L50.2154 185.247C49.2061 185.52 48.1659 184.922 47.8921 183.912L26.7101 105.737ZM28.24 104.143C27.6345 104.308 27.2768 104.932 27.4411 105.538L48.623 183.714C48.7873 184.32 49.4115 184.679 50.017 184.515L222.092 137.89C222.698 137.726 223.056 137.101 222.891 136.495L201.709 58.3196C201.545 57.7132 200.921 57.3547 200.315 57.5188L28.24 104.143Z" fill="#318035"/>
<path fill-rule="evenodd" clip-rule="evenodd" d="M200.174 75.9217C199.913 74.9566 198.789 74.5126 197.825 74.7934C197.777 74.8075 197.728 74.8212 197.679 74.8345C193.971 75.8392 190.167 74.0373 188.54 70.7267C188.172 69.9776 187.353 69.492 186.544 69.7112L46.2425 107.727C45.4337 107.946 44.9713 108.779 45.0318 109.611C45.2634 112.796 43.5153 115.829 40.6359 117.237C39.8832 117.606 39.3942 118.423 39.6125 119.229L52.0599 165.168C52.2782 165.974 53.1131 166.433 53.9487 166.37C57.6415 166.096 61.125 168.454 62.1254 172.147C62.2108 172.462 62.5313 172.663 62.8477 172.577L204.95 134.074C205.266 133.988 205.441 133.653 205.356 133.338C204.221 129.149 206.711 124.83 210.917 123.691C210.966 123.677 211.015 123.665 211.064 123.652C212.038 123.408 212.783 122.457 212.522 121.492L200.174 75.9217Z" fill="white"/>
<path fill-rule="evenodd" clip-rule="evenodd" d="M200.174 75.9217C199.913 74.9566 198.789 74.5126 197.825 74.7934C197.777 74.8075 197.728 74.8212 197.679 74.8345C193.971 75.8392 190.167 74.0373 188.54 70.7267C188.172 69.9776 187.353 69.492 186.544 69.7112L46.2425 107.727C45.4337 107.946 44.9713 108.779 45.0318 109.611C45.2634 112.796 43.5153 115.829 40.6359 117.237C39.8832 117.606 39.3942 118.423 39.6125 119.229L52.0599 165.168C52.2782 165.974 53.1131 166.433 53.9487 166.37C57.6415 166.096 61.125 168.454 62.1254 172.147C62.2108 172.462 62.5313 172.663 62.8477 172.577L204.95 134.074C205.266 133.988 205.441 133.653 205.356 133.338C204.221 129.149 206.711 124.83 210.917 123.691C210.966 123.677 211.015 123.665 211.064 123.652C212.038 123.408 212.783 122.457 212.522 121.492L200.174 75.9217Z" fill="#318035"/>
<path d="M151.622 114.002C155.747 129.226 146.685 144.929 131.382 149.076C116.079 153.222 100.329 144.242 96.2038 129.018C92.0787 113.794 101.141 98.0913 116.444 93.9448C131.747 89.7983 147.497 98.7784 151.622 114.002Z" fill="white"/>
<path opacity="0.44" d="M151.622 114.002C155.747 129.226 146.685 144.929 131.382 149.076C116.079 153.222 100.329 144.242 96.2038 129.018C92.0787 113.794 101.141 98.0913 116.444 93.9448C131.747 89.7983 147.497 98.7784 151.622 114.002Z" fill="#318035"/>
<path d="M112.693 138.686C112.693 138.686 112.3 127.45 110.683 123.604C109.308 117.263 106.689 116.528 106.609 111.338C106.528 106.147 105.222 107.488 106.584 106.137C107.945 104.786 113.359 110.233 113.359 110.233C113.359 110.233 114.908 111.287 115.243 110.097C115.243 110.097 115.929 110.198 116.081 110.633C116.231 111.064 117.557 110.063 117.62 109.725C117.683 109.387 118.041 108.172 115.949 103.935C115.949 103.935 115.46 102.074 116.47 101.392C117.227 101.026 116.272 101.412 118.15 102.002C120.027 102.592 123.535 104.714 124.992 107.057C124.992 107.057 127.358 107.806 127.763 108.338C127.763 108.338 128.547 108.267 128.972 108.371C129.403 108.477 129.597 107.054 131.255 106.225C132.913 105.397 133.992 103.772 136.094 104.209C137.977 105.692 137.009 106.173 137.009 106.173C137.009 106.173 137.193 106.498 137.457 106.383C137.732 106.556 138.202 107.382 138.089 107.767C137.976 108.153 139.845 108.964 139.626 111.921C139.402 114.88 138.055 118.356 138.055 118.356C138.055 118.356 137.578 120.97 138.518 122.689C139.458 124.409 143.078 129.426 142.643 130.642C142.207 131.854 137.582 140.023 132.226 141.129C126.865 142.237 115.048 144.252 112.693 138.686Z" fill="white"/>
<path fill-rule="evenodd" clip-rule="evenodd" d="M116.487 101.543C116.012 101.865 115.88 102.467 115.875 103.012C115.872 103.283 115.901 103.533 115.931 103.716C115.946 103.808 115.96 103.882 115.972 103.933C115.977 103.959 115.982 103.979 115.985 103.992C115.986 103.996 115.987 104 115.988 104.003C115.988 104.003 115.988 104.004 115.988 104.005C117.041 106.129 117.479 107.501 117.644 108.388C117.727 108.832 117.742 109.156 117.731 109.391C117.722 109.591 117.694 109.727 117.676 109.814C117.673 109.829 117.671 109.843 117.668 109.855C117.657 109.914 117.621 109.978 117.575 110.04C117.529 110.104 117.467 110.172 117.397 110.242C117.255 110.381 117.073 110.529 116.887 110.652C116.703 110.773 116.51 110.875 116.35 110.917C116.27 110.938 116.19 110.947 116.12 110.929C116.045 110.91 115.987 110.861 115.96 110.782C115.894 110.595 115.709 110.472 115.522 110.395C115.43 110.357 115.343 110.332 115.278 110.317C115.263 110.313 115.25 110.31 115.238 110.307C115.142 110.585 114.974 110.745 114.768 110.818C114.552 110.895 114.306 110.871 114.083 110.813C113.858 110.754 113.646 110.656 113.491 110.575C113.414 110.534 113.35 110.496 113.305 110.469C113.283 110.456 113.265 110.445 113.253 110.437C113.247 110.433 113.243 110.43 113.239 110.428L113.236 110.425L113.235 110.425L113.234 110.425C113.234 110.425 113.234 110.424 113.278 110.361C113.223 110.415 113.223 110.415 113.223 110.415L113.223 110.415L113.219 110.411L113.207 110.4C113.197 110.39 113.182 110.374 113.162 110.355C113.121 110.315 113.062 110.258 112.986 110.184C112.834 110.038 112.616 109.831 112.349 109.586C111.816 109.097 111.091 108.459 110.323 107.864C109.554 107.268 108.747 106.718 108.048 106.401C107.699 106.243 107.381 106.145 107.112 106.127C106.845 106.109 106.633 106.17 106.481 106.32C106.469 106.331 106.458 106.342 106.447 106.353C106.29 106.507 106.172 106.623 106.084 106.718C105.989 106.82 105.935 106.893 105.906 106.954C105.852 107.068 105.876 107.159 105.962 107.407C105.964 107.415 105.967 107.422 105.97 107.43C106.142 107.928 106.482 108.911 106.516 111.486C106.55 114.075 107.224 115.548 108.065 117.173C108.13 117.299 108.196 117.426 108.263 117.555C109.062 119.086 109.971 120.829 110.608 123.771C111.017 124.744 111.346 126.177 111.609 127.774C111.873 129.377 112.072 131.15 112.221 132.803C112.369 134.455 112.466 135.987 112.526 137.105C112.556 137.664 112.577 138.12 112.59 138.437C112.597 138.595 112.602 138.718 112.605 138.802C112.606 138.844 112.608 138.876 112.608 138.897L112.609 138.916C113.193 140.279 114.363 141.182 115.886 141.751C117.414 142.321 119.292 142.552 121.272 142.574C125.231 142.618 129.574 141.825 132.289 141.263C134.974 140.707 137.492 138.391 139.4 136.047C140.352 134.877 141.149 133.704 141.736 132.747C142.323 131.789 142.697 131.053 142.806 130.756C142.853 130.624 142.849 130.43 142.79 130.176C142.733 129.924 142.625 129.626 142.478 129.293C142.185 128.627 141.743 127.833 141.255 127.021C140.792 126.25 140.289 125.465 139.838 124.759L139.767 124.649C139.299 123.917 138.892 123.277 138.653 122.843C138.17 121.964 138.056 120.861 138.06 119.985C138.062 119.546 138.094 119.161 138.125 118.886C138.141 118.748 138.156 118.638 138.168 118.562C138.174 118.524 138.178 118.494 138.182 118.474C138.184 118.464 138.185 118.457 138.186 118.451L138.187 118.445L138.187 118.443C138.187 118.443 138.187 118.443 138.263 118.457C138.191 118.429 138.191 118.429 138.191 118.429L138.192 118.427L138.195 118.42C138.198 118.413 138.202 118.403 138.207 118.39C138.217 118.364 138.231 118.325 138.25 118.275C138.288 118.174 138.342 118.026 138.408 117.839C138.54 117.466 138.719 116.938 138.905 116.317C139.276 115.074 139.676 113.464 139.793 111.986C139.906 110.52 139.496 109.592 139.076 108.983C138.895 108.72 138.711 108.517 138.562 108.352C138.538 108.324 138.514 108.297 138.491 108.272C138.413 108.184 138.345 108.104 138.301 108.033C138.258 107.963 138.226 107.884 138.25 107.803C138.273 107.725 138.268 107.616 138.237 107.486C138.206 107.359 138.152 107.219 138.084 107.084C138.016 106.949 137.937 106.821 137.859 106.717C137.792 106.629 137.728 106.562 137.676 106.521C137.523 106.568 137.394 106.503 137.311 106.433C137.265 106.395 137.229 106.353 137.205 106.322C137.193 106.306 137.184 106.292 137.178 106.282C137.174 106.277 137.172 106.273 137.17 106.27L137.168 106.266L137.167 106.265L137.167 106.265L137.167 106.265C137.167 106.265 137.167 106.265 137.234 106.227L137.167 106.265L137.127 106.195L137.199 106.159L137.199 106.159L137.2 106.159L137.2 106.158C137.201 106.158 137.203 106.157 137.205 106.155C137.211 106.152 137.218 106.148 137.228 106.141C137.247 106.127 137.274 106.106 137.3 106.077C137.353 106.019 137.407 105.929 137.41 105.797C137.416 105.53 137.216 105.062 136.279 104.328C135.25 104.123 134.469 104.413 133.733 104.864C133.439 105.043 133.154 105.247 132.863 105.456C132.785 105.511 132.707 105.567 132.628 105.623C132.255 105.887 131.868 106.149 131.442 106.361C130.617 106.771 130.156 107.326 129.845 107.769C129.786 107.853 129.732 107.935 129.68 108.012C129.599 108.134 129.526 108.242 129.46 108.325C129.354 108.456 129.231 108.565 129.072 108.527C128.868 108.478 128.571 108.47 128.319 108.475C128.194 108.478 128.083 108.484 128.002 108.489C127.962 108.492 127.93 108.494 127.908 108.496C127.897 108.497 127.888 108.498 127.882 108.498L127.876 108.499L127.874 108.499L127.874 108.499L127.831 108.503L127.806 108.47C127.762 108.412 127.687 108.348 127.585 108.278C127.484 108.209 127.36 108.138 127.221 108.066C126.942 107.923 126.607 107.781 126.284 107.654C125.96 107.528 125.649 107.419 125.419 107.34C125.304 107.301 125.209 107.27 125.143 107.249C125.11 107.238 125.085 107.23 125.067 107.224L125.047 107.218L125.042 107.217L125.041 107.216L125.041 107.216C125.041 107.216 125.041 107.216 125.064 107.143L125.041 107.216L125.014 107.208L124.999 107.184C124.272 106.022 123.027 104.911 121.724 104.017C120.42 103.122 119.066 102.448 118.125 102.157C117.169 101.861 116.918 101.61 116.812 101.467C116.803 101.454 116.795 101.442 116.788 101.432C116.786 101.429 116.784 101.427 116.782 101.424C116.778 101.418 116.775 101.414 116.773 101.411C116.76 101.414 116.738 101.423 116.697 101.442C116.668 101.455 116.632 101.472 116.589 101.494C116.559 101.508 116.526 101.524 116.487 101.543ZM125.114 107.079C124.37 105.901 123.114 104.786 121.811 103.891C120.499 102.991 119.131 102.309 118.172 102.012C117.229 101.72 117.014 101.483 116.936 101.377C116.929 101.366 116.922 101.357 116.915 101.347C116.913 101.344 116.911 101.341 116.909 101.337C116.901 101.326 116.891 101.312 116.88 101.3C116.868 101.287 116.851 101.273 116.829 101.265C116.806 101.256 116.783 101.255 116.762 101.258C116.725 101.263 116.681 101.281 116.632 101.304C116.602 101.318 116.565 101.336 116.52 101.358C116.489 101.373 116.454 101.39 116.416 101.408L116.411 101.411L116.406 101.414C115.861 101.78 115.727 102.453 115.722 103.011C115.719 103.293 115.749 103.553 115.779 103.741C115.795 103.836 115.81 103.913 115.822 103.966C115.828 103.993 115.832 104.014 115.836 104.028C115.838 104.035 115.839 104.041 115.84 104.045L115.841 104.049L115.841 104.051C115.841 104.051 115.842 104.051 115.916 104.031L115.842 104.051L115.843 104.058L115.847 104.065C116.899 106.186 117.331 107.547 117.493 108.416C117.575 108.851 117.588 109.162 117.578 109.384C117.569 109.573 117.544 109.697 117.526 109.784C117.523 109.8 117.52 109.814 117.518 109.827C117.513 109.853 117.493 109.894 117.451 109.951C117.411 110.006 117.356 110.068 117.289 110.134C117.155 110.266 116.98 110.407 116.803 110.525C116.623 110.644 116.447 110.734 116.311 110.77C116.243 110.788 116.192 110.79 116.159 110.782C116.132 110.775 116.115 110.76 116.104 110.731C116.104 110.731 116.104 110.731 116.104 110.731L116.032 110.757M125.114 107.079L125.115 107.079C125.126 107.083 125.141 107.088 125.159 107.094C125.169 107.097 125.18 107.1 125.192 107.104C125.258 107.126 125.354 107.157 125.469 107.196C125.701 107.275 126.014 107.385 126.34 107.513C126.666 107.64 127.006 107.784 127.292 107.931C127.434 108.004 127.564 108.079 127.673 108.152C127.764 108.215 127.843 108.279 127.901 108.344C127.923 108.342 127.955 108.34 127.993 108.337C128.075 108.332 128.189 108.326 128.316 108.323C128.569 108.318 128.883 108.325 129.109 108.379L129.109 108.379C129.168 108.393 129.233 108.363 129.34 108.23C129.403 108.152 129.469 108.054 129.546 107.938C129.598 107.86 129.655 107.775 129.719 107.683C130.038 107.229 130.517 106.651 131.374 106.225C131.788 106.019 132.168 105.763 132.539 105.499C132.617 105.445 132.694 105.389 132.771 105.334C133.063 105.125 133.353 104.917 133.652 104.734C134.412 104.269 135.239 103.96 136.328 104.182L136.346 104.186L136.36 104.197C137.314 104.941 137.572 105.454 137.563 105.8C137.559 105.975 137.486 106.099 137.414 106.179C137.389 106.207 137.363 106.229 137.341 106.246C137.359 106.269 137.382 106.294 137.41 106.317C137.478 106.374 137.561 106.408 137.657 106.366L137.694 106.35L137.728 106.371C137.81 106.422 137.898 106.515 137.981 106.626C138.066 106.738 138.15 106.873 138.221 107.016C138.293 107.158 138.352 107.309 138.386 107.45C138.42 107.59 138.431 107.73 138.397 107.846C138.392 107.862 138.394 107.892 138.431 107.953C138.468 108.012 138.527 108.082 138.606 108.171C138.628 108.196 138.652 108.222 138.676 108.249C138.825 108.414 139.015 108.625 139.202 108.896C139.641 109.531 140.062 110.493 139.946 111.997C139.828 113.49 139.425 115.113 139.052 116.36C138.865 116.984 138.686 117.514 138.553 117.889C138.487 118.077 138.432 118.225 138.394 118.327C138.375 118.378 138.36 118.417 138.35 118.444C138.345 118.457 138.341 118.467 138.338 118.474L138.337 118.477L138.337 118.477C138.336 118.482 138.335 118.489 138.333 118.499C138.33 118.518 138.325 118.547 138.319 118.584C138.308 118.658 138.293 118.767 138.277 118.902C138.246 119.173 138.215 119.553 138.213 119.985C138.209 120.853 138.324 121.925 138.788 122.77C139.023 123.198 139.428 123.833 139.897 124.567L139.968 124.678C140.419 125.383 140.922 126.17 141.387 126.943C141.875 127.756 142.322 128.557 142.619 129.231C142.767 129.569 142.879 129.877 142.94 130.141C143 130.403 143.013 130.633 142.95 130.807L142.95 130.807C142.836 131.119 142.455 131.867 141.867 132.826C141.277 133.787 140.476 134.966 139.519 136.142C137.608 138.491 135.061 140.844 132.32 141.412C129.603 141.975 125.246 142.771 121.27 142.727C119.281 142.705 117.383 142.473 115.831 141.893C114.278 141.313 113.065 140.383 112.462 138.962L112.457 138.949L112.456 138.935L112.533 138.933C112.456 138.935 112.456 138.935 112.456 138.935L112.455 138.903C112.454 138.882 112.453 138.85 112.452 138.808C112.448 138.725 112.444 138.602 112.437 138.444C112.424 138.128 112.403 137.673 112.373 137.114C112.313 135.997 112.216 134.467 112.068 132.817C111.92 131.167 111.721 129.397 111.458 127.799C111.194 126.2 110.867 124.779 110.463 123.824L110.461 123.817L110.459 123.81C109.826 120.885 108.924 119.155 108.127 117.625C108.06 117.496 107.993 117.369 107.928 117.243C107.083 115.609 106.397 114.111 106.363 111.489C106.329 108.937 105.994 107.968 105.826 107.483C105.823 107.474 105.82 107.466 105.817 107.457L105.817 107.457C105.735 107.222 105.683 107.069 105.767 106.89C105.807 106.806 105.875 106.72 105.972 106.615C106.062 106.518 106.183 106.399 106.338 106.246C106.349 106.235 106.361 106.224 106.373 106.212C106.566 106.022 106.827 105.955 107.124 105.975C107.418 105.995 107.755 106.101 108.112 106.263C108.828 106.587 109.646 107.146 110.418 107.744C111.19 108.342 111.918 108.983 112.454 109.474C112.721 109.72 112.941 109.928 113.093 110.075C113.17 110.148 113.229 110.206 113.27 110.246C113.29 110.266 113.306 110.281 113.316 110.292L113.327 110.302C113.329 110.304 113.333 110.306 113.337 110.309C113.348 110.316 113.365 110.327 113.386 110.339C113.428 110.365 113.489 110.401 113.564 110.44C113.713 110.519 113.914 110.61 114.123 110.665C114.334 110.721 114.544 110.737 114.717 110.675C114.885 110.615 115.032 110.478 115.112 110.2L115.13 110.135L115.197 110.145L115.186 110.22M138.263 118.457L138.191 118.429L138.189 118.436L138.187 118.443L138.263 118.457ZM113.278 110.361L113.223 110.415L113.228 110.42L113.234 110.424L113.278 110.361Z" fill="#318035"/>
<path d="M120.87 116.479C120.87 116.479 119.91 114.148 122.009 113.171C123.253 112.591 123.627 112.855 124.582 112.622C125.584 112.081 124.893 113.94 123.908 114.429C123.421 114.825 123.492 115.851 121.272 115.977C120.869 116.132 120.87 116.479 120.87 116.479Z" fill="#318035"/>
<path d="M132.47 105.614C132.47 105.614 130.776 109.509 134.108 108.412L134.746 108.049C134.746 108.049 135.418 109.285 136.967 108.106C136.967 108.106 137.848 108.347 138.163 108.032C138.478 107.717 137.516 106.609 137.516 106.609L137.057 106.394C137.057 106.394 138.204 105.973 136.119 104.375C134.442 103.915 132.47 105.614 132.47 105.614Z" fill="#318035"/>
<path d="M122.037 113.736C122.037 113.736 121.438 114.096 121.383 115.017C122.24 115.712 123.495 114.388 123.495 114.388C123.495 114.388 123.778 113.912 123.275 113.577C122.686 113.56 122.445 113.527 122.037 113.736Z" fill="white"/>
<path opacity="0.44" d="M112.72 138.785C112.72 138.785 113.872 142.198 119.384 142.304C124.897 142.409 113.989 134.589 113.905 128.975C113.905 128.975 116.132 132.638 117.048 131.77C117.965 130.903 113.637 123.216 114.887 122.955C116.138 122.694 116.187 124.5 118.525 124.11C120.864 123.72 121.588 120.159 119.494 115.914C117.4 111.669 118.242 109.793 121.061 109.39C123.88 108.987 125.655 110.447 126.896 109.847C128.137 109.247 120.061 107.701 125.413 107.216C125.413 107.216 123.959 104.348 118.155 102.005C118.155 102.005 117.103 101.929 116.87 101.227C116.87 101.227 115.439 102.2 115.955 103.942C116.471 105.684 118.032 108.124 117.63 109.749C116.65 110.814 116.086 110.66 116.086 110.66C116.086 110.66 115.733 110.019 115.248 110.121C114.763 110.224 115.252 111.12 113.363 110.257C111.572 108.952 109.195 106.003 107.129 105.914C107.129 105.914 105.902 106.334 105.951 106.853C105.999 107.371 106.855 108.602 106.699 111.901C106.569 114.672 110.291 121.889 110.291 121.889C110.291 121.889 113.386 137.761 112.72 138.785Z" fill="#318035"/>
<path d="M122.413 113.597C122.413 113.597 121.593 113.806 121.828 114.362C122.063 114.919 123.536 114.105 123.176 113.783C122.81 113.458 122.504 113.568 122.413 113.597Z" fill="#318035"/>
<path d="M131.367 124.114C131.367 124.114 130.328 122.881 131.486 119.858C133.604 115.635 139.22 112.245 137 108.101C137 108.101 138.253 110.961 139.625 110.691C139.625 110.691 140.181 112.174 138.286 111.297C138.286 111.297 137.317 113.721 134.404 116.73C130.466 121.532 132.496 121.587 131.367 124.114Z" fill="#318035"/>
<path fill-rule="evenodd" clip-rule="evenodd" d="M116.75 101.958C116.38 102.219 116.245 102.693 116.224 103.18C116.214 103.418 116.233 103.64 116.255 103.802C116.265 103.883 116.277 103.948 116.285 103.993C116.287 104.005 116.29 104.016 116.292 104.025C117.334 106.144 117.775 107.529 117.945 108.438C118.031 108.897 118.048 109.237 118.038 109.491C118.029 109.704 118 109.856 117.984 109.941C117.981 109.957 117.978 109.971 117.976 109.982L117.976 109.984L117.975 109.986C117.955 110.096 117.895 110.193 117.845 110.262C117.79 110.338 117.721 110.416 117.646 110.491C117.495 110.641 117.303 110.797 117.11 110.926C116.921 111.052 116.706 111.169 116.512 111.22C116.417 111.245 116.294 111.264 116.17 111.231C116.026 111.194 115.907 111.092 115.854 110.938L115.853 110.938C115.822 110.847 115.716 110.757 115.547 110.686C115.525 110.677 115.504 110.668 115.483 110.661C115.362 110.883 115.186 111.033 114.969 111.111C114.692 111.209 114.397 111.173 114.157 111.108C113.912 111.042 113.685 110.936 113.524 110.85C113.442 110.806 113.375 110.766 113.327 110.737C113.304 110.722 113.285 110.71 113.272 110.702C113.265 110.697 113.26 110.694 113.256 110.691L113.251 110.688L113.25 110.687L113.249 110.687C113.249 110.686 113.249 110.686 113.419 110.435L113.249 110.686L113.225 110.67L113.204 110.649L113.216 110.638C113.204 110.649 113.204 110.649 113.204 110.649L113.204 110.649L113.201 110.646L113.19 110.635C113.18 110.625 113.165 110.61 113.145 110.59C113.106 110.551 113.047 110.494 112.973 110.421C112.823 110.276 112.608 110.069 112.346 109.826C111.82 109.338 111.107 108.704 110.354 108.112C109.598 107.518 108.815 106.98 108.149 106.673C107.815 106.52 107.53 106.433 107.303 106.417C107.082 106.401 106.945 106.453 106.856 106.542C106.846 106.552 106.835 106.563 106.825 106.573C106.669 106.728 106.556 106.84 106.473 106.931C106.383 107.029 106.349 107.08 106.336 107.108C106.336 107.109 106.335 107.111 106.334 107.112C106.327 107.125 106.317 107.143 106.402 107.39C106.404 107.395 106.406 107.401 106.408 107.407C106.586 107.924 106.932 108.928 106.975 111.533C107.016 114.068 107.667 115.561 108.494 117.198C108.574 117.357 108.656 117.518 108.74 117.681C109.521 119.211 110.413 120.955 111.048 123.764C111.591 126.032 112.098 129.827 112.468 133.041C112.654 134.652 112.805 136.122 112.911 137.189C112.964 137.722 113.005 138.155 113.033 138.455C113.047 138.605 113.057 138.721 113.065 138.801C113.067 138.83 113.069 138.854 113.071 138.873C113.623 140.145 114.716 141.005 116.171 141.558C117.647 142.12 119.473 142.355 121.415 142.383C125.298 142.438 129.565 141.665 132.244 141.112C134.81 140.582 137.228 138.341 139.082 136.018C140.003 134.865 140.772 133.708 141.338 132.764C141.907 131.814 142.26 131.097 142.358 130.823C142.383 130.754 142.39 130.611 142.336 130.369C142.284 130.137 142.185 129.852 142.044 129.525C141.764 128.872 141.338 128.086 140.862 127.274C140.394 126.475 139.883 125.659 139.427 124.931L139.41 124.903C138.953 124.172 138.547 123.524 138.307 123.083C137.799 122.153 137.685 121.005 137.688 120.117C137.69 119.668 137.722 119.275 137.754 118.994C137.769 118.854 137.785 118.741 137.797 118.662C137.803 118.623 137.808 118.592 137.812 118.571C137.813 118.56 137.815 118.552 137.816 118.546L137.817 118.539L137.818 118.537L137.818 118.537C137.818 118.537 137.818 118.536 138.116 118.592L137.818 118.536L137.823 118.508L137.833 118.482L137.833 118.482L137.837 118.473C137.839 118.467 137.843 118.457 137.848 118.444C137.857 118.419 137.871 118.381 137.89 118.331C137.927 118.231 137.979 118.086 138.044 117.901C138.172 117.532 138.346 117.009 138.526 116.394C138.888 115.16 139.273 113.572 139.379 112.122C139.482 110.716 139.092 109.839 138.701 109.268C138.53 109.019 138.359 108.827 138.212 108.661C138.186 108.633 138.162 108.606 138.139 108.579C138.062 108.492 137.982 108.399 137.927 108.308C137.875 108.225 137.799 108.072 137.851 107.895C137.858 107.873 137.862 107.81 137.835 107.697C137.809 107.59 137.762 107.467 137.7 107.343C137.639 107.219 137.567 107.104 137.498 107.011C137.471 106.975 137.446 106.945 137.425 106.922C137.237 106.931 137.083 106.841 136.991 106.764C136.929 106.711 136.882 106.655 136.852 106.614C136.836 106.593 136.824 106.575 136.815 106.561C136.81 106.554 136.807 106.548 136.804 106.544L136.802 106.54C136.801 106.539 136.801 106.538 136.8 106.537L136.799 106.535L136.798 106.534L136.798 106.534L136.798 106.533C136.798 106.533 136.798 106.533 137.061 106.383L136.798 106.533L136.639 106.254L136.92 106.114C136.921 106.113 136.922 106.112 136.924 106.111C136.932 106.105 136.945 106.095 136.957 106.081C136.98 106.056 137.005 106.016 137.006 105.949C137.009 105.802 136.895 105.406 136.015 104.698C135.1 104.526 134.403 104.785 133.719 105.206C133.438 105.379 133.166 105.576 132.88 105.782C132.803 105.838 132.724 105.895 132.645 105.952C132.275 106.216 131.881 106.484 131.445 106.703C130.68 107.086 130.252 107.605 129.958 108.03C129.909 108.101 129.858 108.178 129.809 108.252C129.724 108.382 129.641 108.506 129.571 108.595C129.469 108.723 129.263 108.95 128.957 108.874C128.786 108.832 128.519 108.822 128.272 108.827C128.153 108.829 128.046 108.835 127.969 108.84C127.931 108.842 127.9 108.844 127.879 108.846C127.869 108.847 127.861 108.847 127.855 108.848L127.85 108.848L127.848 108.848L127.848 108.848M127.941 108.232C128.024 108.227 128.135 108.222 128.259 108.219C128.493 108.215 128.801 108.221 129.048 108.272C129.059 108.26 129.076 108.242 129.097 108.216C129.154 108.144 129.209 108.06 129.279 107.954C129.329 107.877 129.388 107.788 129.46 107.682C129.785 107.214 130.283 106.605 131.174 106.159C131.566 105.963 131.928 105.717 132.292 105.457C132.366 105.404 132.441 105.35 132.516 105.296C132.804 105.087 133.099 104.874 133.402 104.688C134.179 104.208 135.054 103.875 136.207 104.116L136.276 104.131L136.332 104.175C137.283 104.926 137.622 105.501 137.612 105.963C137.61 106.077 137.586 106.176 137.551 106.26L137.671 106.336C137.787 106.409 137.894 106.529 137.982 106.647C138.075 106.771 138.165 106.918 138.242 107.072C138.318 107.225 138.384 107.392 138.424 107.555C138.456 107.69 138.477 107.848 138.449 108C138.474 108.039 138.519 108.094 138.592 108.177C138.613 108.201 138.636 108.226 138.66 108.253C138.807 108.418 139.006 108.641 139.2 108.925C139.662 109.599 140.097 110.611 139.983 112.168C139.872 113.681 139.474 115.317 139.107 116.566C138.924 117.193 138.747 117.726 138.616 118.102C138.55 118.291 138.496 118.44 138.458 118.543C138.439 118.594 138.424 118.634 138.414 118.661C138.412 118.666 138.41 118.67 138.409 118.674C138.406 118.692 138.401 118.719 138.396 118.755C138.385 118.826 138.371 118.931 138.356 119.064C138.326 119.328 138.296 119.698 138.294 120.12C138.291 120.974 138.405 121.998 138.838 122.792C139.068 123.213 139.461 123.842 139.923 124.58L139.942 124.611C140.397 125.337 140.911 126.16 141.384 126.967C141.863 127.785 142.305 128.597 142.601 129.286C142.748 129.63 142.864 129.953 142.927 130.237C142.988 130.511 143.012 130.793 142.929 131.028L142.928 131.029C142.809 131.362 142.43 132.122 141.857 133.078C141.28 134.041 140.496 135.221 139.555 136.399C137.687 138.738 135.154 141.132 132.367 141.707C129.683 142.261 125.361 143.047 121.407 142.99C119.431 142.962 117.526 142.723 115.957 142.127C114.384 141.529 113.125 140.561 112.495 139.066L112.476 139.022L112.472 138.974L112.774 138.948C112.472 138.974 112.472 138.975 112.472 138.974L112.469 138.944C112.467 138.924 112.465 138.894 112.461 138.855C112.454 138.776 112.443 138.66 112.429 138.511C112.402 138.212 112.361 137.78 112.308 137.248C112.203 136.183 112.051 134.716 111.866 133.11C111.496 129.891 110.992 126.13 110.458 123.904L110.458 123.902L110.457 123.9C109.84 121.166 108.979 119.481 108.2 117.956C108.117 117.793 108.035 117.632 107.954 117.472C107.108 115.796 106.412 114.208 106.369 111.542C106.328 109.03 106.001 108.083 105.84 107.617C105.836 107.607 105.833 107.597 105.829 107.587C105.826 107.577 105.822 107.567 105.819 107.557C105.747 107.349 105.665 107.114 105.787 106.851C105.841 106.734 105.929 106.626 106.027 106.519C106.12 106.418 106.242 106.296 106.393 106.146C106.405 106.134 106.417 106.122 106.429 106.11C106.68 105.861 107.01 105.787 107.345 105.811C107.675 105.835 108.036 105.953 108.401 106.121C109.133 106.458 109.96 107.032 110.727 107.634C111.498 108.239 112.224 108.886 112.757 109.38C113.023 109.627 113.242 109.837 113.394 109.985C113.47 110.059 113.53 110.118 113.57 110.158C113.587 110.175 113.601 110.188 113.611 110.198C113.62 110.204 113.631 110.211 113.645 110.22C113.683 110.244 113.739 110.277 113.808 110.314C113.948 110.388 114.129 110.472 114.313 110.521C114.502 110.572 114.656 110.577 114.765 110.538C114.851 110.507 114.949 110.435 115.01 110.217L115.083 109.961L115.346 110L115.302 110.3C115.346 110 115.346 110 115.346 110L115.346 110L115.348 110L115.351 110C115.353 110.001 115.356 110.001 115.359 110.002C115.367 110.003 115.376 110.005 115.388 110.007C115.412 110.011 115.444 110.018 115.483 110.028C115.56 110.047 115.667 110.078 115.78 110.125C115.967 110.204 116.235 110.354 116.377 110.627C116.475 110.597 116.615 110.525 116.773 110.42C116.937 110.31 117.098 110.179 117.218 110.059C117.279 109.999 117.324 109.947 117.354 109.905C117.372 109.881 117.379 109.866 117.382 109.861C117.384 109.848 117.387 109.835 117.389 109.821C117.406 109.735 117.426 109.63 117.432 109.465C117.441 109.262 117.428 108.968 117.35 108.549C117.193 107.708 116.772 106.369 115.732 104.26L115.717 104.229L115.709 104.196L116.003 104.126C115.709 104.196 115.709 104.196 115.709 104.196L115.709 104.195L115.708 104.193L115.707 104.188C115.706 104.183 115.705 104.177 115.703 104.17C115.7 104.155 115.695 104.133 115.69 104.106C115.68 104.052 115.666 103.975 115.654 103.882C115.629 103.695 115.607 103.436 115.619 103.153C115.643 102.601 115.8 101.866 116.427 101.442L116.445 101.43L116.465 101.42C116.554 101.377 116.616 101.344 116.66 101.32C116.666 101.316 116.673 101.313 116.68 101.308C116.712 101.291 116.753 101.268 116.784 101.254C116.805 101.245 116.858 101.223 116.927 101.223C117.014 101.224 117.086 101.258 117.137 101.3C117.173 101.33 117.197 101.363 117.203 101.372L117.204 101.373C117.209 101.38 117.212 101.384 117.214 101.387C117.216 101.39 117.218 101.393 117.222 101.397L117.222 101.398C117.239 101.42 117.384 101.611 118.297 101.899C119.272 102.207 120.646 102.904 121.957 103.816C123.233 104.704 124.48 105.816 125.246 107.004C125.313 107.026 125.408 107.058 125.524 107.098C125.754 107.178 126.067 107.291 126.394 107.42C126.719 107.549 127.064 107.698 127.356 107.85C127.502 107.926 127.639 108.006 127.757 108.087C127.821 108.132 127.884 108.18 127.941 108.232ZM138.432 107.971C138.432 107.971 138.433 107.973 138.434 107.975C138.432 107.972 138.432 107.971 138.432 107.971ZM129.024 108.292C129.024 108.292 129.026 108.291 129.028 108.29C129.026 108.292 129.024 108.292 129.024 108.292ZM129.1 108.284C129.101 108.284 129.101 108.284 129.101 108.284L129.1 108.284ZM116.75 101.958C116.795 101.936 116.833 101.916 116.866 101.899L116.75 101.958ZM116.715 101.731C116.715 101.731 116.715 101.732 116.715 101.731L116.715 101.731C116.712 101.727 116.712 101.728 116.715 101.731ZM115.257 110.601C115.257 110.601 115.257 110.601 115.257 110.601V110.601Z" fill="#318035"/>
<path d="M111.79 117.706C111.79 117.706 111.697 115.801 109.682 115.124C107.667 114.447 107.986 110.294 107.902 108.554C107.818 106.813 113.348 112.534 114.078 115.357C114.078 115.357 111.926 115.739 111.79 117.706Z" fill="#318035"/>
<path d="M119.52 103.591C119.52 103.591 121.156 106.571 121.171 107.117C121.181 107.66 122.115 106.038 124.133 106.964C123.806 105.724 120.023 103.524 119.52 103.591Z" fill="#318035"/>
</g>
<defs>
<filter id="filter0_d_2343_441" x="25.6436" y="55.7205" width="205.045" height="136.592" filterUnits="userSpaceOnUse" color-interpolation-filters="sRGB">
<feFlood flood-opacity="0" result="BackgroundImageFix"/>
<feColorMatrix in="SourceAlpha" type="matrix" values="0 0 0 0 0 0 0 0 0 0 0 0 0 0 0 0 0 0 127 0" result="hardAlpha"/>
<feOffset dx="3" dy="3"/>
<feGaussianBlur stdDeviation="2"/>
<feComposite in2="hardAlpha" operator="out"/>
<feColorMatrix type="matrix" values="0 0 0 0 0 0 0 0 0 0 0 0 0 0 0 0 0 0 0.25 0"/>
<feBlend mode="normal" in2="BackgroundImageFix" result="effect1_dropShadow_2343_441"/>
<feBlend mode="normal" in="SourceGraphic" in2="effect1_dropShadow_2343_441" result="shape"/>
</filter>
</defs>
</svg>
