<svg width="14" height="14" viewBox="0 0 14 14" fill="none" xmlns="http://www.w3.org/2000/svg">
<circle cx="7" cy="7" r="6.5" stroke="#000000"/>
<path d="M5.84495 11V10.625H6.36495V6.14H5.84495V5.765H7.56495V10.625H8.08495V11H5.84495ZM6.96495 5.105C6.74828 5.105 6.56495 5.03 6.41495 4.88C6.26495 4.72667 6.18995 4.54167 6.18995 4.325C6.18995 4.115 6.26495 3.935 6.41495 3.785C6.56495 3.63167 6.74828 3.555 6.96495 3.555C7.17162 3.555 7.34995 3.63167 7.49995 3.785C7.65328 3.935 7.72995 4.115 7.72995 4.325C7.72995 4.54167 7.65328 4.72667 7.49995 4.88C7.34995 5.03 7.17162 5.105 6.96495 5.105Z" fill="#000000"/>
</svg>
