<svg xmlns="http://www.w3.org/2000/svg" width="36" height="36" viewBox="0 0 36 36" fill="none">
<path d="M11.7139 13.1111C11.7139 13.9362 12.0475 14.7276 12.6414 15.311C13.2352 15.8944 14.0407 16.2222 14.8805 16.2222C15.7204 16.2222 16.5258 15.8944 17.1197 15.311C17.7136 14.7276 18.0472 13.9362 18.0472 13.1111C18.0472 12.286 17.7136 11.4947 17.1197 10.9112C16.5258 10.3278 15.7204 10 14.8805 10C14.0407 10 13.2352 10.3278 12.6414 10.9112C12.0475 11.4947 11.7139 12.286 11.7139 13.1111Z" stroke="#1D3557" stroke-width="1.5" stroke-linecap="round" stroke-linejoin="round"/>
<path d="M9 13.5557H11.7143" stroke="#1D3557" stroke-width="1.5" stroke-linecap="round" stroke-linejoin="round"/>
<path d="M18.0479 13.5557L28.0002 13.5557" stroke="#1D3557" stroke-width="1.5" stroke-linecap="round" stroke-linejoin="round"/>
<path d="M18.0479 22.8889C18.0479 23.7141 18.3815 24.5054 18.9753 25.0888C19.5692 25.6723 20.3747 26.0001 21.2145 26.0001C22.0544 26.0001 22.8598 25.6723 23.4537 25.0888C24.0476 24.5054 24.3812 23.7141 24.3812 22.8889C24.3812 22.0638 24.0476 21.2725 23.4537 20.6891C22.8598 20.1056 22.0544 19.7778 21.2145 19.7778C20.3747 19.7778 19.5692 20.1056 18.9753 20.6891C18.3815 21.2725 18.0479 22.0638 18.0479 22.8889Z" stroke="#1D3557" stroke-width="1.5" stroke-linecap="round" stroke-linejoin="round"/>
<path d="M9 22.4443L18.0476 22.4443" stroke="#1D3557" stroke-width="1.5" stroke-linecap="round" stroke-linejoin="round"/>
<path d="M24.3809 22.4443H27.9999" stroke="#1D3557" stroke-width="1.5" stroke-linecap="round" stroke-linejoin="round"/>
</svg>