<svg width="77" height="94" viewBox="0 0 77 94" fill="none" xmlns="http://www.w3.org/2000/svg">
<g style="mix-blend-mode:luminosity" opacity="0.1" filter="url(#filter0_d_94_4494)">
<path d="M24.0996 52.4847C24.0996 52.4847 27.1967 39.2453 26.5242 34.2457C26.9254 26.4088 24.0996 24.7233 25.6482 18.6399C27.1967 12.5564 25.2469 13.7084 27.2645 12.5621C29.2822 11.4158 33.8826 19.4854 33.8826 19.4854C33.8826 19.4854 35.3577 21.2049 36.1263 19.9224C36.1263 19.9224 36.8949 20.2572 36.9345 20.8134C36.974 21.3638 38.8391 20.6147 39.0199 20.2402C39.2008 19.8657 40.0033 18.5604 38.9012 12.9537C38.9012 12.9537 38.9182 10.627 40.3141 10.1503C41.3145 9.96303 40.0768 10.1106 42.0831 11.3931C44.0894 12.6756 47.5143 16.2621 48.4751 19.4571C48.4751 19.4571 51.0014 21.0801 51.3065 21.8292C51.3065 21.8292 52.2447 21.9937 52.7081 22.2491C53.1772 22.5101 53.8554 20.9098 56.0539 20.4672C58.2524 20.0246 60.027 18.4696 62.3442 19.6443C64.0736 21.971 62.7906 22.2264 62.7906 22.2264C62.7906 22.2264 62.9037 22.6634 63.2484 22.6123C63.5141 22.9017 63.8023 24.014 63.548 24.4282C63.2936 24.8425 65.2208 26.3804 64.0283 29.7626C62.8302 33.1448 60.157 36.7767 60.157 36.7767C60.157 36.7767 58.7723 39.6766 59.3262 41.9806C59.8801 44.2846 62.5203 51.2849 61.6274 52.5675C60.7344 53.8443 52.7477 61.9164 46.141 61.5134C39.5286 61.1105 25.0886 59.7259 24.0996 52.4847Z" fill="white" stroke="#858585" stroke-width="0.135246" stroke-miterlimit="10"/>
<path d="M40.8517 28.7923C40.8517 28.7923 40.4053 25.4725 42.9881 25.0242C44.0732 25.0582 44.9379 25.6371 46.0512 25.6654C47.3059 25.3703 46.0004 27.2033 44.7796 27.4473C44.1297 27.7368 43.9036 28.8831 41.4395 28.361C40.9535 28.4121 40.8517 28.7923 40.8517 28.7923Z" fill="#858585"/>
<path d="M57.7887 19.9281C57.7887 19.9281 54.6464 23.8324 58.7947 23.6111L59.6368 23.3954C59.6368 23.3954 60.0211 25.0071 62.1574 24.1445C62.1574 24.1445 63.0899 24.6893 63.5477 24.4283C64.0055 24.1672 63.2481 22.6123 63.2481 22.6123L62.7904 22.2264C62.7904 22.2264 64.2315 22.1016 62.3439 19.6444C60.5693 18.6059 57.7887 19.9281 57.7887 19.9281Z" fill="#858585"/>
<path d="M43.0956 25.7221C43.0956 25.7221 41.6036 25.9775 41.9427 27.5267C42.6209 28.6333 44.2599 27.4586 44.2599 27.4586C44.2599 27.4586 44.6781 26.982 44.2599 26.4201C43.8417 25.8583 43.3048 25.6654 43.0956 25.7221Z" fill="white"/>
<path opacity="0.44" d="M24.0996 52.4848C24.0996 52.4848 24.3652 56.8204 30.7685 58.6817C37.1718 60.5431 26.9085 48.0016 28.587 41.4415C28.587 41.4415 30.0282 46.407 31.3733 45.6863C32.7183 44.9656 30.096 34.6544 31.6389 34.7452C33.1818 34.836 32.6675 36.9527 35.5215 37.2364C38.3756 37.5202 40.348 33.6045 39.246 28.0034C38.1439 22.4023 39.7207 20.4842 43.1399 20.9042C46.5592 21.3241 48.1699 23.5827 49.8089 23.2763C51.4478 22.9698 42.507 18.6229 48.9102 19.7465C48.9102 19.7465 48.119 15.95 42.0831 11.3931C42.0831 11.3931 40.8793 10.9732 40.8284 10.0822C40.8284 10.0822 38.8504 10.7632 38.9012 12.9537C38.9521 15.1442 40.0033 18.4753 39.0199 20.2402C37.5392 21.1709 36.9288 20.8134 36.9288 20.8134C36.9288 20.8134 36.7197 19.9565 36.1206 19.9224C35.5215 19.8884 35.8098 21.0858 33.8769 19.4855C32.1984 17.4028 30.356 13.2204 27.971 12.4657C27.971 12.4657 26.4055 12.5678 26.2981 13.1864C26.1907 13.8049 26.8011 15.5074 25.5747 19.2982C24.5461 22.4818 26.6089 32.0553 26.6089 32.0553C26.6089 32.0553 25.2017 51.503 24.0996 52.4848Z" fill="#858585"/>
<path d="M43.1681 26.0854C43.1681 26.0854 42.2243 26.0683 42.3147 26.8571C42.4051 27.6459 44.2306 27.1182 43.9367 26.5847C43.6372 26.0456 43.2755 26.0797 43.1681 26.0854Z" fill="#858585"/>
<path d="M49.3457 38.5587C49.3457 38.5587 49.7244 37.1002 51.985 36.1242C54.2457 35.1481 63.4409 29.6832 62.1579 24.1445C62.1579 24.1445 62.7175 27.8786 64.4073 27.9978C64.4073 27.9978 64.5881 29.9045 62.6496 28.2815C62.6496 28.2815 58.6426 34.172 54.9295 35.341C51.2164 36.5157 52.7819 38.4679 49.3457 38.5587Z" fill="#858585"/>
<path opacity="0.16" d="M62.2764 33.3037C62.2764 33.3037 49.905 42.2246 49.905 44.6534C48.6899 49.3919 51.1427 59.2946 50.5719 60.4409C50.0011 61.5872 60.1795 55.6305 61.9654 51.9589C61.9654 51.9589 61.6548 50.5837 59.3263 41.9749C59.3263 41.9749 59.1511 38.8367 60.1571 36.7711C61.1631 34.7111 62.1634 34.1209 62.2764 33.3037Z" fill="#858585"/>
<path d="M24.1113 52.4848C24.1113 52.4848 26.372 39.8185 26.5359 34.2458C26.858 26.6642 24.1113 24.7234 25.6599 18.6399C27.2084 12.5565 25.2586 13.7085 27.2762 12.5621C29.2939 11.4158 33.8943 19.4855 33.8943 19.4855C33.8943 19.4855 35.3694 21.205 36.138 19.9224C36.138 19.9224 36.9066 20.2573 36.9462 20.8134C36.9857 21.3639 38.8508 20.6148 39.0316 20.2402C39.2068 19.8657 40.015 18.5605 38.9129 12.9537C38.9129 12.9537 38.9808 10.7859 40.3767 10.3092C41.377 10.122 40.0941 10.1106 42.1005 11.3931C44.1068 12.6756 47.5317 16.2622 48.4924 19.4571C48.4924 19.4571 51.0187 21.0801 51.3239 21.8292C51.3239 21.8292 52.2621 21.9938 52.7255 22.2491C53.1946 22.5102 53.8728 20.9099 56.0713 20.4672C58.2698 20.0246 60.0444 18.4697 62.3615 19.6444C64.0909 21.9711 62.808 22.2264 62.808 22.2264C62.808 22.2264 62.921 22.6634 63.2658 22.6123C63.5314 22.9017 63.8196 24.014 63.5653 24.4283C63.311 24.8425 65.2382 26.3804 64.0457 29.7626C62.8532 33.1449 60.1743 36.7768 60.1743 36.7768C60.1743 36.7768 58.7784 39.6766 59.3323 41.9806C59.8861 44.2846 62.4533 51.285 61.5604 52.5675C60.6674 53.8443 52.7651 61.9164 46.1583 61.5135C39.5403 61.1106 25.0947 59.7259 24.1113 52.4848Z" stroke="#858585" stroke-width="0.540982" stroke-miterlimit="10"/>
<path d="M42.452 61.7461C58.6079 61.7461 71.7049 48.5954 71.7049 32.3731C71.7049 16.1508 58.6079 3 42.452 3C26.2962 3 13.1992 16.1508 13.1992 32.3731C13.1992 48.5954 26.2962 61.7461 42.452 61.7461Z" stroke="#858585" stroke-width="4.05736" stroke-miterlimit="10"/>
<path d="M22.1146 55.0695L24.7539 56.5847L19.4357 63.0086L17.1751 61.397L22.1146 55.0695Z" fill="#858585"/>
<path d="M3.11572 79.9151C0.651615 78.1673 0.165579 74.8986 2.03627 72.6456L11.0054 61.8464C12.8761 59.5935 16.4253 59.1792 18.8894 60.927C21.3535 62.6749 21.8396 65.9436 19.9689 68.1965L10.9997 78.9958C9.12906 81.243 5.57983 81.6573 3.11572 79.9151Z" fill="#858585"/>
<path d="M29.7231 27.47C29.7231 27.47 30.1921 25.2398 28.1632 23.8267C26.1343 22.4137 27.7337 17.7149 28.1632 15.6776C28.5927 13.6404 33.001 21.9824 32.9614 25.4724C32.9614 25.4724 30.4634 25.2398 29.7231 27.47Z" fill="#858585"/>
<path d="M43.1348 13.6063C43.1348 13.6063 44.1238 17.5219 43.9656 18.1518C43.8017 18.7761 45.4406 17.2098 47.5487 18.8952C47.56 17.3744 43.7564 13.6857 43.1348 13.6063Z" fill="#858585"/>
</g>
<defs>
<filter id="filter0_d_94_4494" x="0.169922" y="0.971313" width="76.2694" height="95.0159" filterUnits="userSpaceOnUse" color-interpolation-filters="sRGB">
<feFlood flood-opacity="0" result="BackgroundImageFix"/>
<feColorMatrix in="SourceAlpha" type="matrix" values="0 0 0 0 0 0 0 0 0 0 0 0 0 0 0 0 0 0 127 0" result="hardAlpha"/>
<feOffset dx="2.16393" dy="1.4877"/>
<feGaussianBlur stdDeviation="0.270491"/>
<feColorMatrix type="matrix" values="0 0 0 0 0 0 0 0 0 0 0 0 0 0 0 0 0 0 0.25 0"/>
<feBlend mode="normal" in2="BackgroundImageFix" result="effect1_dropShadow_94_4494"/>
<feBlend mode="normal" in="SourceGraphic" in2="effect1_dropShadow_94_4494" result="shape"/>
</filter>
</defs>
</svg>
