<svg width="22" height="22" viewBox="0 0 22 22" fill="none" xmlns="http://www.w3.org/2000/svg">
<g id="Unsubscribe">
<path id="Vector 1" d="M8.88456 5.27706C4.54715 6.4819 5.35038 11.7029 5.51102 14.4338L4.78812 16.1206H16.3546L15.6317 14.4338C16.3546 7.2048 14.4268 5.759 12.2581 5.27706C12.2581 4.79512 11.9316 3.83125 10.5713 3.83125C9.12552 3.83125 8.88456 4.79512 8.88456 5.27706Z" stroke="#E63946" stroke-width="1.5"/>
<path id="Vector 2" d="M10.8123 18.7713C9.07731 18.7713 8.16165 17.0845 8.4026 16.3616H12.74C12.981 17.0845 12.1699 18.7713 10.8123 18.7713Z" stroke="#E63946" stroke-width="1.5"/>
<path id="Vector 3" d="M3.54092 19.5303L4.07125 20.0607L4.60158 19.5303L19.5303 4.60158L20.0607 4.07125L19.5303 3.54092L18.4591 2.46967L17.9288 1.93934L17.3984 2.46967L2.46967 17.3984L1.93934 17.9288L2.46967 18.4591L3.54092 19.5303Z" fill="#E63946" stroke="white" stroke-width="1.5"/>
</g>
</svg>
